<?xml version="1.0" encoding="UTF-8" standalone="no"?>
<!-- Created with Inkscape (http://www.inkscape.org/) -->

<svg
   id="svg-wasi"
   viewBox="0 0 189.52865 48"
   xmlns="http://www.w3.org/2000/svg">
     <path
   id="path1"
   d="M 24,0 A 24,24 0 0 0 0,24 24,24 0 0 0 24,48 24,24 0 0 0 47.999996,24 24,24 0 0 0 24,0 Z m 0,1 A 23,23 0 0 1 47,24 23,23 0 0 1 24,47 23,23 0 0 1 1,24 23,23 0 0 1 24,1 Z" />
     <path
   id="path92"
   d="M 40.523438 11.46875 L 37.84375 13.259766 L 38.275391 13.90625 L 39.220703 13.273438 L 39.453125 13.621094 L 38.824219 14.726562 L 39.287109 15.417969 L 39.314453 15.400391 L 40.021484 14.121094 C 40.182057 14.217903 40.349075 14.267537 40.523438 14.273438 C 40.698621 14.280565 40.889613 14.215928 41.095703 14.078125 C 41.35945 13.901771 41.499322 13.676268 41.513672 13.400391 C 41.530075 13.12492 41.43522 12.832572 41.228516 12.523438 L 40.523438 11.46875 z M 40.457031 12.447266 L 40.736328 12.867188 C 40.891777 13.107633 40.848361 13.310245 40.605469 13.472656 C 40.361351 13.635886 40.158192 13.594954 39.994141 13.349609 L 39.720703 12.939453 L 40.457031 12.447266 z " />
     <path
   id="path2"
   d="M 24,8.6289062 C 16.993379,8.6342262 10.877151,13.375893 9.126953,20.160157 l 6.845703,4.580078 c -0.0168,0.14796 -0.08875,0.248217 -0.203125,0.302734 l -6.728516,-4.5 C 8.772713,21.675884 8.635385,22.835766 8.628906,24 c 0,8.489944 6.881237,15.371094 15.371094,15.371094 8.489608,0 15.371094,-6.881402 15.371094,-15.371094 -0.0042,-0.481172 -0.03281,-0.962493 -0.08398,-1.443359 l -3.251953,5.304688 c -0.05021,0.08245 -0.157702,0.108661 -0.240234,0.05859 -0.08364,-0.05027 -0.110002,-0.159243 -0.05859,-0.242187 L 39.216806,22.00195 C 38.22791,15.11699 32.520188,8.6377946 24,8.6289062 Z m 0.86914,10.2402348 0.541016,1.558594 1.648438,0.03516 -1.316407,0.994141 0.476563,1.580078 -1.351563,-0.945313 -1.355469,0.941406 0.478516,-1.578124 -1.3125,-0.998047 1.648438,-0.03125 z m -1.517578,2.572266 c 0.14382,0.06399 0.194769,0.174051 0.177735,0.318359 l -5.88086,3.287109 c -0.122895,-0.03019 -0.211316,-0.152637 -0.177734,-0.318359 z m 3.007813,0.02148 7.990234,6.173828 c 0.0032,0.136918 -0.0893,0.257876 -0.222656,0.289063 l -7.990235,-6.175782 c -0.01464,-0.146987 0.101472,-0.288327 0.222657,-0.287109 z m -9.603516,2.154297 0.541016,1.558594 1.648437,0.03516 -1.316406,0.994141 0.476562,1.580078 -1.353515,-0.94336 -1.353516,0.939453 0.478516,-1.578125 -1.3125,-0.998046 1.648437,-0.03125 z m 18.355469,3.060547 0.539062,1.558594 1.650391,0.03516 -1.316406,0.99414 0.476562,1.580078 -1.353515,-0.945312 -1.355469,0.941406 0.480469,-1.578125 -1.3125,-0.998047 1.648437,-0.03125 z" />
     <path
   id="path3"
   d="m 3.48193,20.296859 0.547275,-1.892794 -1.498408,-1.197207 1.88182,-0.03774 0.620455,-1.867949 0.615914,1.869622 1.881811,0.04301 -1.501586,1.193148 0.542951,1.894224 -1.54386,-1.132235 z" />
     <path
   id="path4"
   d="m 41.346113,20.215849 0.592938,-1.863146 -1.469852,-1.227009 1.882964,0.01184 0.665239,-1.836364 0.570883,1.870733 1.880914,0.09197 -1.530105,1.144052 0.497219,1.893248 -1.516447,-1.16349 z" />
     <path
   id="path5"
   d="M 9.159953,20.101274 6.984375,18.638672 c -0.114816,-0.07744 -0.27071,-0.04679 -0.347657,0.06836 -0.07611,0.114435 -0.04558,0.268848 0.06836,0.345703 l 2.32736,1.564642" />
     <path
   id="path6"
   d="m 39.28055,22.675081 2.035856,-3.294221 c 0.07186,-0.118095 0.03424,-0.272093 -0.08398,-0.34375 h -4e-6 c -0.117586,-0.07221 -0.271441,-0.03549 -0.34375,0.08203 l -1.703554,2.812504" />
     <path
   d="m 35.694527,10.970902 2.289218,-2.268625 1.565912,1.580126 -0.426084,0.422251 -1.019011,-1.0282611 -0.482686,0.4783431 0.858526,0.866318 -0.410361,0.40667 -0.858526,-0.866318 -0.545575,0.540668 1.014337,1.023545 -0.424512,0.420692 z"
   id="path91" />
     <path
   d="M 34.25798,6.6611682 34.597284,6.1664808 36.818814,7.6902215 36.479509,8.1849089 35.679978,7.6365125 34.196303,9.7996289 33.555582,9.3601605 35.039257,7.1970441 Z"
   id="path90" />
     <path
   d="m 31.652658,7.3318949 c 0.04001,-0.093631 0.04051,-0.1848968 0.0015,-0.2737959 C 31.616478,6.9697797 31.503767,6.8429783 31.316026,6.6776947 31.128867,6.5110542 30.978921,6.3530946 30.866187,6.2038161 30.75539,6.0537606 30.684317,5.9046327 30.652967,5.7564325 30.622974,5.6088122 30.64248,5.454262 30.711487,5.2927817 c 0.108441,-0.2537548 0.302726,-0.4098424 0.582854,-0.4682629 0.280128,-0.058421 0.584386,-0.017463 0.912775,0.1228726 0.324318,0.1385959 0.553943,0.3354204 0.688876,0.5904733 0.13629,0.2556328 0.144707,0.5232179 0.02525,0.8027552 l -0.71042,-0.3035772 c 0.04755,-0.1112722 0.0518,-0.2169771 0.01275,-0.3171148 -0.03711,-0.1009148 -0.124876,-0.180947 -0.263288,-0.2400967 -0.135698,-0.05799 -0.250908,-0.071919 -0.345629,-0.041787 -0.09414,0.028775 -0.158609,0.083872 -0.193403,0.1652907 -0.03769,0.088203 -0.02142,0.1834237 0.04883,0.2856605 0.07083,0.1008799 0.179458,0.2147031 0.325884,0.3414696 0.271907,0.2349529 0.461554,0.4652437 0.568941,0.6908724 0.109324,0.2248516 0.110624,0.4621193 0.0039,0.7118032 -0.11424,0.2673245 -0.301833,0.430284 -0.562778,0.4888784 C 31.54511,8.1806137 31.2491,8.1391633 30.917997,7.9976678 30.71445,7.9106829 30.532476,7.7919946 30.372074,7.6416029 30.211672,7.4912111 30.102012,7.3159645 30.043093,7.115863 29.984174,6.9157615 30.004585,6.6990108 30.104328,6.4656107 l 0.716485,0.3061868 c -0.07423,0.1736931 -0.08038,0.3138907 -0.01846,0.4205928 0.06192,0.1067021 0.177014,0.196007 0.345281,0.2679145 0.135698,0.05799 0.2449,0.070956 0.327606,0.038899 0.08406,-0.031477 0.143201,-0.087247 0.177415,-0.1673087 z"
   id="path89" />
     <path
   d="M 29.37651,3.9644309 28.744906,7.1248507 27.98519,6.973023 27.260339,4.7830394 26.867322,6.7496193 26.105435,6.5973578 26.737038,3.436938 l 0.761887,0.1522615 0.724851,2.1899836 0.393017,-1.9665799 z"
   id="path88" />
     <path
   d="M 25.061451,3.3229073 24.956298,6.5441057 24.181972,6.5188285 24.287125,3.2976301 Z"
   id="path87" />
     <path
   d="M 21.154494,5.7622468 21.520043,3.4358994 22.528315,3.2787718 23.02458,6.4632495 22.254706,6.5832254 22.13882,5.8395974 21.975958,4.3057585 21.559195,6.6916129 21.051778,6.7706879 19.928793,4.6247856 20.240381,6.1354473 20.356267,6.8790754 19.588581,6.9987105 19.092316,3.8142328 20.098401,3.657446 Z"
   id="path86" />
     <path
   d="M 15.211588,5.8719798 14.986609,5.3158975 17.483849,4.3055663 17.708828,4.8616486 16.810068,5.2252682 17.793833,7.656846 17.073594,7.9482398 16.089829,5.516662 Z"
   id="path85" />
     <path
   d="m 14.331417,8.4145117 c -0.05595,-0.08507 -0.131767,-0.1358824 -0.22744,-0.1524373 -0.09444,-0.017366 -0.262397,0.00656 -0.503874,0.071779 -0.242287,0.063986 -0.456785,0.1017448 -0.643494,0.1132764 -0.186286,0.00949 -0.349859,-0.013627 -0.49072,-0.069345 C 12.326262,8.3212561 12.208197,8.2196345 12.111694,8.0729199 11.960047,7.842368 11.93723,7.594196 12.043244,7.3284039 12.14926,7.0626117 12.351449,6.831591 12.64981,6.6353419 c 0.294662,-0.1938163 0.585567,-0.2765332 0.872714,-0.2481507 0.288379,0.027571 0.516097,0.1683455 0.683152,0.4223226 l -0.645422,0.4245307 c -0.0665,-0.1010976 -0.152272,-0.1630226 -0.257317,-0.185775 -0.104625,-0.024796 -0.219815,0.00416 -0.345571,0.086881 -0.123289,0.081095 -0.198532,0.169445 -0.225729,0.2650507 -0.02801,0.094373 -0.01768,0.1785462 0.03097,0.2525201 0.05271,0.080138 0.141083,0.1191591 0.26511,0.1170623 0.123217,-0.00333 0.278101,-0.031018 0.464651,-0.083073 0.346042,-0.096905 0.642765,-0.1278106 0.890169,-0.092716 0.247826,0.033051 0.446346,0.1630024 0.595561,0.3898553 0.159757,0.2428808 0.191997,0.4892694 0.09672,0.7391657 -0.09528,0.2498963 -0.293327,0.47378 -0.594154,0.671651 -0.184935,0.121642 -0.384384,0.2077904 -0.598347,0.2584452 -0.213964,0.050655 -0.420623,0.045282 -0.619977,-0.016119 -0.199354,-0.061401 -0.368773,-0.1981302 -0.508256,-0.4101885 l 0.65097,-0.4281799 c 0.103801,0.1578109 0.217278,0.240372 0.340429,0.2476835 0.123151,0.00731 0.261167,-0.039312 0.414046,-0.139869 0.12329,-0.081095 0.194412,-0.1649682 0.213367,-0.2516206 0.02019,-0.087463 0.0064,-0.1675656 -0.04149,-0.2403065 z"
   id="path84" />
     <path
   d="M 11.099819,12.163415 8.8564127,9.8494783 10.453601,8.3009731 l 0.417557,0.4306847 -1.0393642,1.007684 0.4730262,0.4878972 0.875672,-0.8489813 0.402149,0.4147922 -0.875672,0.8489811 0.534658,0.551467 1.034597,-1.003061 0.416016,0.429095 z"
   id="path83" />
     <path
   d="M 7.7472777,11.037829 10.065436,13.379015 9.6242729,14.050588 7.8517303,13.40263 9.1551569,14.764713 8.712778,15.438137 5.6435474,14.240292 6.066481,13.596469 l 1.8883688,0.798202 -1.4423439,-1.477176 0.3621673,-0.551319 1.9388861,0.733395 -1.488,-1.419769 z"
   id="text1" />
     <path
   d="m 27.841797,41.503906 -0.71875,0.142578 -0.535156,3.390625 0.820312,-0.162109 0.06445,-0.626953 1.044922,-0.207031 0.298828,0.554687 0.820313,-0.162109 z m -0.183594,0.951172 0.560547,1.033203 -0.679688,0.134766 z"
   id="path70" />
     <path
   d="m 24.28125,41.867187 c -0.408724,0.0059 -0.734708,0.152081 -0.978516,0.4375 -0.242354,0.283922 -0.360549,0.668845 -0.353515,1.154297 l 0.0039,0.208985 c 0.01274,0.472086 0.139799,0.844247 0.382812,1.115234 0.243013,0.27101 0.577476,0.404638 1.003907,0.398438 0.39692,-0.0057 0.712739,-0.115157 0.947265,-0.328125 0.234529,-0.212968 0.357808,-0.489992 0.369141,-0.828125 l -0.775391,0.01172 c -0.0052,0.351299 -0.187321,0.52989 -0.548828,0.535157 -0.211002,0.0031 -0.361978,-0.06855 -0.451172,-0.214844 -0.08924,-0.147768 -0.135691,-0.39205 -0.140625,-0.734375 l -0.0039,-0.197266 c -0.0034,-0.336444 0.04,-0.57866 0.130859,-0.724609 0.09084,-0.147449 0.231531,-0.221876 0.421875,-0.22461 0.206576,-0.003 0.354002,0.04107 0.439454,0.132813 0.08693,0.09172 0.134044,0.22875 0.142578,0.410156 l 0.77539,-0.01172 C 25.612121,42.673293 25.481352,42.398724 25.253906,42.183594 25.02644,41.967013 24.701779,41.861121 24.28125,41.867187 Z"
   id="path72" />
     <path
   d="m 21.361328,41.724609 -0.40625,3.197266 0.767578,0.09766 0.40625,-3.197265 z"
   id="path71" />
     <path
   d="m 30.199219,40.810547 -0.726563,0.277344 1.150391,3.011718 1.990234,-0.759765 -0.214844,-0.558594 -1.261718,0.482422 z"
   id="path69" />
     <path
   d="m 17.201172,40.667969 -0.921875,3.08789 0.74414,0.222657 0.214844,-0.720704 0.369141,-1.498046 0.08984,2.419921 0.492187,0.146485 1.404297,-1.97461 -0.513672,1.455079 -0.216797,0.720703 0.748047,0.224609 0.921875,-3.087891 -0.976562,-0.292968 -1.332032,1.943359 -0.04687,-2.355469 z"
   id="path68" />
     <path
   id="path66"
   d="M 14.802734 39.533203 C 14.665535 39.534803 14.5281 39.560412 14.390625 39.607422 C 14.026024 39.732195 13.726886 40.009944 13.492188 40.443359 L 13.429688 40.558594 C 13.19499 40.992009 13.126591 41.395303 13.222656 41.769531 C 13.320016 42.144462 13.549422 42.431451 13.914062 42.628906 C 14.276106 42.824957 14.639961 42.860399 15.005859 42.736328 C 15.371758 42.612258 15.673505 42.333806 15.908203 41.900391 L 15.970703 41.785156 C 16.205402 41.35174 16.273145 40.947196 16.175781 40.572266 C 16.079121 40.196038 15.850326 39.910894 15.488281 39.714844 C 15.260381 39.591434 15.0314 39.530511 14.802734 39.533203 z M 14.900391 40.175781 C 14.915697 40.174959 14.931858 40.175108 14.947266 40.175781 C 15.029436 40.179381 15.112269 40.20397 15.197266 40.25 C 15.380238 40.34908 15.479354 40.494273 15.492188 40.6875 C 15.505028 40.880728 15.433888 41.120767 15.279297 41.40625 L 15.208984 41.537109 C 15.059419 41.810211 14.897491 41.995161 14.722656 42.091797 C 14.549822 42.187857 14.375713 42.189163 14.203125 42.095703 C 14.021457 41.997323 13.925388 41.847559 13.914062 41.648438 C 13.904032 41.45002 13.974623 41.213244 14.125 40.935547 L 14.246094 40.716797 C 14.453383 40.368862 14.670797 40.188109 14.900391 40.175781 z " />
     <path
   d="m 35.175781,38.238281 c -0.251919,0.0089 -0.50454,0.102153 -0.755859,0.28125 -0.290826,0.207252 -0.48406,0.445279 -0.580078,0.714844 -0.09602,0.269565 -0.06445,0.517457 0.0957,0.742187 0.101913,0.143012 0.225547,0.239743 0.367187,0.291016 0.142843,0.05042 0.306386,0.06721 0.492188,0.05078 0.186148,-0.01849 0.398942,-0.06373 0.638672,-0.136718 0.238873,-0.07419 0.404978,-0.103671 0.5,-0.08984 0.09622,0.01297 0.175281,0.05966 0.234375,0.142578 0.05053,0.0709 0.06769,0.150125 0.05078,0.238281 -0.01571,0.0873 -0.0849,0.174125 -0.205078,0.259766 -0.149018,0.10622 -0.284865,0.158983 -0.408203,0.15625 -0.123339,-0.0027 -0.239989,-0.0825 -0.34961,-0.236328 l -0.634765,0.453125 c 0.147302,0.206705 0.32193,0.336711 0.523437,0.390625 0.201508,0.05394 0.409171,0.05275 0.621094,-0.0059 0.211923,-0.05861 0.407626,-0.152788 0.587891,-0.28125 0.29323,-0.208964 0.48248,-0.44008 0.568359,-0.693359 0.08588,-0.253279 0.04371,-0.497628 -0.125,-0.734375 -0.157579,-0.221126 -0.360488,-0.345367 -0.609375,-0.369141 -0.248541,-0.02583 -0.542582,0.0172 -0.884766,0.126953 -0.184476,0.05898 -0.339883,0.09168 -0.46289,0.09961 -0.123864,0.0067 -0.211912,-0.02931 -0.267578,-0.107422 -0.05139,-0.07211 -0.06548,-0.154647 -0.04102,-0.25 0.02361,-0.09655 0.09467,-0.187796 0.214844,-0.273438 0.12258,-0.08735 0.236319,-0.120482 0.341797,-0.09961 0.105822,0.01881 0.195399,0.07724 0.265625,0.175781 l 0.628906,-0.449218 c -0.176421,-0.247563 -0.410011,-0.379698 -0.699219,-0.396485 -0.036,-0.0022 -0.07143,-0.0013 -0.107422,0 z"
   id="path65" />
     <path
   id="path59"
   d="M 9.3496094 35.011719 C 8.9646342 34.994514 8.5839732 35.145327 8.2070312 35.462891 L 8.1074219 35.546875 C 7.7304799 35.86444 7.5181475 36.21422 7.4707031 36.597656 C 7.4242096 36.982222 7.533609 37.333268 7.8007812 37.650391 C 8.066052 37.965261 8.3914178 38.132061 8.7773438 38.150391 C 9.1632697 38.168724 9.5449331 38.018737 9.921875 37.701172 L 10.021484 37.617188 C 10.398426 37.299625 10.60976 36.949019 10.65625 36.564453 C 10.703872 36.178937 10.595349 35.828543 10.330078 35.513672 C 10.062906 35.196541 9.736664 35.029099 9.3496094 35.011719 z M 9.4785156 35.703125 C 9.626977 35.708325 9.7562499 35.776885 9.8652344 35.90625 C 9.999296 36.065378 10.037231 36.237337 9.9785156 36.421875 C 9.9197996 36.606412 9.7658633 36.802545 9.5175781 37.011719 L 9.4042969 37.107422 C 9.1652181 37.306908 8.9461114 37.419307 8.7480469 37.445312 C 8.5520616 37.471492 8.3920802 37.409862 8.265625 37.259766 C 8.1325141 37.101766 8.0959238 36.927751 8.1582031 36.738281 C 8.2214331 36.549941 8.3737207 36.35386 8.6152344 36.150391 L 8.8085938 35.990234 C 9.0647306 35.791812 9.2876367 35.696378 9.4785156 35.703125 z " />
     <path
   d="m 11.642578,37.041016 -2.0351561,2.5 0.6015621,0.490234 1.267579,-1.554688 -0.382813,2.275391 0.599609,0.488281 2.035157,-2.498047 -0.59961,-0.490234 -1.267578,1.554688 0.382813,-2.273438 z"
   id="path64" />
     <path
   d="m 37.810547,36.048828 c -0.388327,-0.0096 -0.726287,0.13291 -1.013672,0.427734 -0.289448,0.296939 -0.424897,0.638494 -0.404297,1.025391 0.02057,0.38481 0.207602,0.749711 0.560547,1.09375 l 0.09375,0.0918 c 0.352945,0.344039 0.723135,0.519624 1.109375,0.529297 0.387271,0.0086 0.724227,-0.134702 1.013672,-0.431641 0.287385,-0.294824 0.421884,-0.635617 0.402344,-1.021484 -0.01954,-0.385867 -0.205649,-0.751665 -0.558594,-1.095703 l -0.09375,-0.08984 c -0.352945,-0.344036 -0.722104,-0.520677 -1.109375,-0.529297 z m -0.214844,0.677734 c 0.04459,-0.0017 0.09132,0.0016 0.138672,0.01172 0.189399,0.04037 0.400334,0.173779 0.632812,0.400391 l 0.105469,0.103515 c 0.221937,0.218399 0.355118,0.424574 0.400391,0.619141 0.04525,0.19248 2.78e-4,0.359456 -0.136719,0.5 -0.144208,0.147938 -0.313156,0.199677 -0.507812,0.15625 -0.193627,-0.04449 -0.404722,-0.176053 -0.63086,-0.396484 l -0.177734,-0.175782 c -0.39564,-0.418628 -0.457374,-0.766108 -0.1875,-1.042968 0.108928,-0.111749 0.229511,-0.17055 0.363281,-0.175782 z"
   id="path62" />
     <path
   d="m 39.898437,33.28125 c -0.07585,0.002 -0.151941,0.01115 -0.228515,0.02734 -0.307523,0.06395 -0.578388,0.271705 -0.8125,0.621093 -0.227541,0.339583 -0.293414,0.689883 -0.197266,1.052735 0.09575,0.360805 0.344718,0.677009 0.748047,0.947265 l 0.175781,0.117188 c 0.395582,0.257961 0.773669,0.364173 1.134766,0.318359 0.361097,-0.04581 0.661039,-0.247269 0.898437,-0.601562 0.220968,-0.329775 0.309405,-0.650825 0.267579,-0.964844 -0.04183,-0.314019 -0.199002,-0.571841 -0.470704,-0.773437 l -0.429687,0.642578 c 0.286021,0.204086 0.328208,0.45746 0.126953,0.757812 -0.117467,0.175306 -0.262536,0.25786 -0.433594,0.248047 -0.172284,-0.01064 -0.401131,-0.112158 -0.685547,-0.302734 l -0.162109,-0.109375 c -0.27869,-0.188516 -0.453095,-0.361796 -0.521484,-0.519532 -0.06961,-0.158556 -0.05128,-0.316464 0.05469,-0.474609 0.115002,-0.171629 0.235319,-0.267029 0.359375,-0.285156 0.124878,-0.01935 0.263894,0.0191 0.417969,0.115234 l 0.431641,-0.642578 C 40.35123,33.333616 40.125988,33.275184 39.898437,33.28125 Z"
   id="path58" />
     <path
   id="path56"
   d="M 7.8261719 31.804688 L 5.0253906 33.400391 L 5.4101562 34.076172 L 6.3984375 33.511719 L 6.6074219 33.875 L 5.9003906 34.933594 L 6.3125 35.65625 L 6.3417969 35.640625 L 7.1367188 34.414062 C 7.2900082 34.52201 7.4534501 34.585242 7.6269531 34.603516 C 7.8011873 34.623076 7.9975296 34.570076 8.2128906 34.447266 C 8.4885014 34.290098 8.6418586 34.074941 8.6757812 33.800781 C 8.7117163 33.527172 8.6373393 33.229291 8.453125 32.90625 L 7.8261719 31.804688 z M 7.6894531 32.775391 L 7.9394531 33.214844 C 8.0774233 33.465727 8.0194431 33.663854 7.765625 33.808594 C 7.5105247 33.954065 7.3102644 33.898964 7.1640625 33.642578 L 6.9199219 33.214844 L 7.6894531 32.775391 z " />
     <path
   d="m 40.302734,31.439453 -0.335937,0.699219 2.902344,1.40039 0.335937,-0.697265 z"
   id="path55" />
     <path
   d="M 6.6738281,28.751953 6.1074219,28.953125 6.4257812,29.845703 3.9570313,30.728516 4.2167969,31.458984 6.6875,30.578125 7.0136719,31.490234 7.578125,31.289062 Z"
   id="path54" />
     <path
   d="m 41.384766,28.488281 -0.695313,2.113281 3.060547,1.007813 0.693359,-2.105469 -0.566406,-0.1875 -0.451172,1.369141 -0.730469,-0.242188 0.382813,-1.158203 -0.548828,-0.179687 -0.382813,1.158203 -0.644531,-0.212891 0.453125,-1.375 z"
   id="path53" />
     <path
   d="m 41.384766,28.488281 0.570312,0.1875 -0.453125,1.375 0.644531,0.212891 0.382813,-1.158203 0.548828,0.179687 -0.382813,1.158203 0.730469,0.242188 0.451172,-1.369141 0.566406,0.1875 L 43.75,31.609375 40.689453,30.601562 Z"
   id="path52" />
     <path
   d="m 5.3945312,26.005859 c -0.03289,0.0019 -0.065613,0.0059 -0.099609,0.01172 -0.1730714,0.02974 -0.3142006,0.09583 -0.421875,0.201172 -0.1074248,0.106799 -0.1939237,0.247354 -0.2597657,0.421875 -0.064138,0.175725 -0.1159928,0.389069 -0.1542968,0.636719 -0.03685,0.247399 -0.081064,0.410633 -0.1347657,0.490234 -0.053452,0.08106 -0.1301164,0.129244 -0.2304687,0.146484 -0.085808,0.01475 -0.166202,-0.0051 -0.2382812,-0.05859 -0.071829,-0.05204 -0.119542,-0.149484 -0.1445313,-0.294922 -0.030987,-0.180343 -0.018867,-0.325609 0.037109,-0.435547 0.055976,-0.109937 0.1771204,-0.180904 0.3632812,-0.212891 L 3.9804688,26.144531 c -0.2501536,0.04298 -0.4440408,0.142649 -0.5800782,0.300781 -0.1360374,0.158133 -0.2244832,0.346142 -0.2636718,0.5625 -0.039191,0.216358 -0.039437,0.432234 -0.00195,0.650391 0.060973,0.354869 0.1860548,0.627147 0.3769532,0.814453 0.1908983,0.187304 0.4302837,0.256258 0.7167968,0.207031 0.2676062,-0.04598 0.4662529,-0.176726 0.5957031,-0.390625 0.1311549,-0.212694 0.2218351,-0.495654 0.2714844,-0.851562 0.026939,-0.191793 0.063124,-0.344728 0.109375,-0.458984 0.047705,-0.114509 0.1183558,-0.181026 0.2128906,-0.197266 0.087263,-0.01499 0.1688579,0.0088 0.2441407,0.07227 0.076737,0.06318 0.1273544,0.169015 0.1523437,0.314453 0.025489,0.148347 0.00599,0.265599 -0.058594,0.351562 -0.062883,0.08717 -0.1541783,0.139663 -0.2734375,0.160156 l 0.1308593,0.761719 C 5.9128839,28.389928 6.134735,28.237632 6.2753906,27.984375 6.4162962,27.732572 6.4562084,27.433535 6.3964844,27.085937 6.3360108,26.733978 6.2050752,26.455462 6.0039062,26.251953 5.8278834,26.073885 5.6247606,25.992343 5.3945312,26.005859 Z"
   id="path51" />
     <path
   d="m 41.912109,25.382812 -0.404297,2.66211 0.591797,0.08984 0.142578,-0.935547 2.59375,0.394531 0.117188,-0.769531 -2.59375,-0.394532 0.146484,-0.957031 z"
   id="path50" />
     <path
   id="path47"
   d="M 2.8730469 22.28125 L 2.8671875 23.115234 L 3.4667969 23.306641 L 3.4589844 24.371094 L 2.8554688 24.552734 L 2.8496094 25.388672 L 6.0820312 24.222656 L 6.0878906 23.490234 L 2.8730469 22.28125 z M 4.0664062 23.496094 L 5.1855469 23.851562 L 4.0605469 24.189453 L 4.0664062 23.496094 z " />
     <path
   d="m 41.878906,22.162109 0.01953,0.835938 1.41211,0.564453 -1.384766,0.625 0.01758,0.837891 2.041016,-1.083985 1.158203,-0.02734 L 45.125,23.125 l -1.158203,0.02539 z"
   id="path46" />
     <path
   d="m 133.62803,23.608896 v -8.32 h 1.648 v 1.648 h 0.192 c 0.11733,-0.533333 0.336,-0.938667 0.656,-1.216 0.33067,-0.288 0.74667,-0.432 1.248,-0.432 h 0.416 v 1.68 h -0.704 c -0.58667,0 -1.03467,0.112 -1.344,0.336 -0.30933,0.224 -0.464,0.581333 -0.464,1.072 v 5.232 z"
   id="path19" />
     <path
   id="path17"
   d="M 128.54102 15.097656 C 128.00769 15.097656 127.52628 15.182849 127.09961 15.353516 C 126.68361 15.524183 126.32105 15.784719 126.01172 16.136719 C 125.71305 16.488719 125.48422 16.941427 125.32422 17.496094 C 125.16422 18.040094 125.08398 18.691886 125.08398 19.449219 C 125.08398 20.206552 125.16917 20.856391 125.33984 21.400391 C 125.52117 21.944391 125.76684 22.399052 126.07617 22.761719 C 126.3855 23.113719 126.75798 23.374255 127.19531 23.544922 C 127.63264 23.715592 128.11405 23.800781 128.63672 23.800781 C 129.38339 23.800781 130.00648 23.64527 130.50781 23.335938 C 131.01981 23.015938 131.42594 22.594933 131.72461 22.072266 L 130.76367 21.160156 C 130.53967 21.565489 130.26231 21.881469 129.93164 22.105469 C 129.61164 22.329469 129.20055 22.441406 128.69922 22.441406 C 128.11255 22.441406 127.64992 22.264109 127.30859 21.912109 C 126.97792 21.560109 126.8125 21.053911 126.8125 20.392578 L 126.8125 19.865234 L 131.90039 19.865234 L 131.90039 19.449219 C 131.90039 17.934552 131.60124 16.830052 131.00391 16.136719 C 130.41724 15.443386 129.59702 15.097656 128.54102 15.097656 z M 128.54102 16.408203 C 129.61835 16.408203 130.15625 17.081781 130.15625 18.425781 L 130.15625 18.761719 L 126.8125 18.761719 L 126.8125 18.425781 C 126.8125 17.753781 126.9611 17.250589 127.25977 16.919922 C 127.55844 16.578589 127.98635 16.408203 128.54102 16.408203 z " />
     <path
   d="m 122.46006,23.608896 c -0.576,0 -0.99733,-0.128 -1.264,-0.384 -0.256,-0.256 -0.384,-0.672 -0.384,-1.248 v -5.328 h -1.152 v -1.36 h 0.64 c 0.26667,0 0.44267,-0.05867 0.528,-0.176 0.096,-0.128 0.144,-0.325333 0.144,-0.592 v -1.504 h 1.488 v 2.272 h 1.552 v 1.36 h -1.552 v 5.6 h 1.44 v 1.36 z"
   id="path16" />
     <path
   d="m 115.75607,23.800896 c -0.69333,0 -1.296,-0.128 -1.808,-0.384 -0.50133,-0.266667 -0.93867,-0.650667 -1.312,-1.152 l 1.056,-0.976 c 0.27733,0.394667 0.58133,0.693333 0.912,0.896 0.33067,0.192 0.72,0.288 1.168,0.288 0.43733,0 0.77333,-0.096 1.008,-0.288 0.23467,-0.202667 0.352,-0.496 0.352,-0.88 0,-0.298667 -0.0747,-0.538667 -0.224,-0.72 -0.14933,-0.181333 -0.42133,-0.309333 -0.816,-0.384 l -0.72,-0.128 c -0.84267,-0.149333 -1.46133,-0.410667 -1.856,-0.784 -0.39467,-0.373333 -0.592,-0.928 -0.592,-1.664 0,-0.864 0.25067,-1.498667 0.752,-1.904 0.50133,-0.416 1.18933,-0.624 2.064,-0.624 0.64,0 1.184,0.112 1.632,0.336 0.45867,0.213333 0.85867,0.528 1.2,0.944 l -0.992,0.976 c -0.224,-0.309333 -0.496,-0.538667 -0.816,-0.688 -0.30933,-0.16 -0.64533,-0.24 -1.008,-0.24 -0.832,0 -1.248,0.378667 -1.248,1.136 0,0.330667 0.0853,0.576 0.256,0.736 0.17067,0.16 0.44267,0.272 0.816,0.336 l 0.736,0.144 c 0.864,0.149333 1.47733,0.416 1.84,0.8 0.37333,0.373333 0.56,0.890667 0.56,1.552 0,0.842667 -0.256,1.498667 -0.768,1.968 -0.512,0.469333 -1.24267,0.704 -2.192,0.704 z"
   id="path15" />
     <path
   d="m 104.92408,23.608896 v -8.32 h 1.648 v 1.376 h 0.192 c 0.33067,-1.045333 1.01333,-1.568 2.048,-1.568 0.74667,0 1.32267,0.256 1.728,0.768 0.416,0.501333 0.624,1.242667 0.624,2.224 v 5.52 h -1.648 v -5.296 c 0,-0.586667 -0.112,-1.034667 -0.336,-1.344 -0.224,-0.309333 -0.576,-0.464 -1.056,-0.464 -0.43733,0 -0.80533,0.133333 -1.104,0.4 -0.29867,0.256 -0.448,0.618667 -0.448,1.088 v 5.616 z"
   id="path14" />
     <path
   d="m 101.03609,15.288896 h 1.648 v 8.32 h -1.648 z"
   id="path13" />
     <path
   d="m 101.85209,13.704896 c -0.66133,0 -0.992,-0.282667 -0.992,-0.848 v -0.288 c 0,-0.565333 0.33067,-0.848 0.992,-0.848 0.66133,0 0.992,0.282667 0.992,0.848 v 0.288 c 0,0.565333 -0.33067,0.848 -0.992,0.848 z"
   id="path12" />
     <path
   d="m 88.284097,23.608896 v -8.32 h 1.648 v 1.376 h 0.192 c 0.330667,-1.045333 0.997333,-1.568 2,-1.568 1.034667,0 1.722667,0.533333 2.064,1.6 h 0.176 c 0.170667,-0.544 0.442667,-0.944 0.816,-1.2 0.373333,-0.266667 0.842667,-0.4 1.408,-0.4 0.714667,0 1.269333,0.256 1.664,0.768 0.405333,0.501333 0.608,1.242667 0.608,2.224 v 5.52 h -1.648 v -5.296 c 0,-0.586667 -0.112,-1.034667 -0.336,-1.344 -0.213333,-0.309333 -0.544,-0.464 -0.992,-0.464 -0.405333,0 -0.757333,0.133333 -1.056,0.4 -0.288,0.256 -0.432,0.618667 -0.432,1.088 v 5.616 h -1.648 v -5.296 c 0,-0.586667 -0.112,-1.034667 -0.336,-1.344 -0.213333,-0.309333 -0.544,-0.464 -0.992,-0.464 -0.416,0 -0.768,0.133333 -1.056,0.4 -0.288,0.256 -0.432,0.618667 -0.432,1.088 v 5.616 z"
   id="path11" />
     <path
   d="m 85.084111,23.608896 c -0.576,0 -0.997333,-0.128 -1.264,-0.384 -0.256,-0.256 -0.384,-0.672 -0.384,-1.248 v -5.328 h -1.152 v -1.36 h 0.64 c 0.266667,0 0.442667,-0.05867 0.528,-0.176 0.096,-0.128 0.144,-0.325333 0.144,-0.592 v -1.504 h 1.488 v 2.272 h 1.552 v 1.36 h -1.552 v 5.6 h 1.44 v 1.36 z"
   id="path10" />
     <path
   d="m 78.380129,23.800896 c -0.693333,0 -1.296,-0.128 -1.808,-0.384 -0.501333,-0.266667 -0.938667,-0.650667 -1.312,-1.152 l 1.056,-0.976 c 0.277333,0.394667 0.581333,0.693333 0.912,0.896 0.330667,0.192 0.72,0.288 1.168,0.288 0.437333,0 0.773333,-0.096 1.008,-0.288 0.234667,-0.202667 0.352,-0.496 0.352,-0.88 0,-0.298667 -0.07467,-0.538667 -0.224,-0.72 -0.149333,-0.181333 -0.421333,-0.309333 -0.816,-0.384 l -0.72,-0.128 c -0.842667,-0.149333 -1.461333,-0.410667 -1.856,-0.784 -0.394667,-0.373333 -0.592,-0.928 -0.592,-1.664 0,-0.864 0.250667,-1.498667 0.752,-1.904 0.501333,-0.416 1.189333,-0.624 2.064,-0.624 0.64,0 1.184,0.112 1.632,0.336 0.458667,0.213333 0.858667,0.528 1.2,0.944 l -0.992,0.976 c -0.224,-0.309333 -0.496,-0.538667 -0.816,-0.688 -0.309333,-0.16 -0.645333,-0.24 -1.008,-0.24 -0.832,0 -1.248,0.378667 -1.248,1.136 0,0.330667 0.08533,0.576 0.256,0.736 0.170667,0.16 0.442667,0.272 0.816,0.336 l 0.736,0.144 c 0.864,0.149333 1.477333,0.416 1.84,0.8 0.373333,0.373333 0.56,0.890667 0.56,1.552 0,0.842667 -0.256,1.498667 -0.768,1.968 -0.512,0.469333 -1.242667,0.704 -2.192,0.704 z"
   id="path9" />
     <path
   id="path7"
   d="M 70.859375 15.097656 C 70.326042 15.097656 69.846589 15.182849 69.419922 15.353516 C 69.003922 15.524183 68.641364 15.784719 68.332031 16.136719 C 68.033364 16.488719 67.804531 16.941427 67.644531 17.496094 C 67.484531 18.040094 67.404297 18.691886 67.404297 19.449219 C 67.404297 20.206552 67.489489 20.856391 67.660156 21.400391 C 67.841489 21.944391 68.087151 22.399052 68.396484 22.761719 C 68.705817 23.113719 69.078292 23.374255 69.515625 23.544922 C 69.952958 23.715592 70.434364 23.800781 70.957031 23.800781 C 71.703698 23.800781 72.326792 23.64527 72.828125 23.335938 C 73.340125 23.015938 73.746255 22.594933 74.044922 22.072266 L 73.083984 21.160156 C 72.859984 21.565489 72.58262 21.881469 72.251953 22.105469 C 71.931953 22.329469 71.520864 22.441406 71.019531 22.441406 C 70.432864 22.441406 69.970239 22.264109 69.628906 21.912109 C 69.298239 21.560109 69.132812 21.053911 69.132812 20.392578 L 69.132812 19.865234 L 74.220703 19.865234 L 74.220703 19.449219 C 74.220703 17.934552 73.921552 16.830052 73.324219 16.136719 C 72.737552 15.443386 71.915375 15.097656 70.859375 15.097656 z M 70.859375 16.408203 C 71.936708 16.408203 72.476562 17.081781 72.476562 18.425781 L 72.476562 18.761719 L 69.132812 18.761719 L 69.132812 18.425781 C 69.132812 17.753781 69.281411 17.250589 69.580078 16.919922 C 69.878745 16.578589 70.304708 16.408203 70.859375 16.408203 z " />
     <path
   d="m 56.396121,23.608896 -2.368,-11.168 h 1.728 l 1.312,6.768 0.352,2.592 h 0.208 l 0.352,-2.56 1.408,-6.8 h 2.064 l 1.424,6.8 0.352,2.56 h 0.208 l 0.352,-2.592 1.312,-6.768 h 1.664 l -2.448,11.168 h -2.032 l -1.44,-6.88 -0.352,-2.576 h -0.192 l -0.352,2.576 -1.504,6.88 z"
   id="text3" />
     <path
   d="m 187.89666,31.591221 h 1.632 l -3.216,10.208 q -0.128,0.384 -0.288,0.64 -0.144,0.256 -0.368,0.4 -0.208,0.16 -0.512,0.208 -0.304,0.064 -0.704,0.064 h -1.152 v -1.36 h 1.504 l 0.384,-1.392 -2.768,-8.768 h 1.68 l 1.248,4.368 0.576,2.528 h 0.176 l 0.576,-2.528 z"
   id="path45" />
     <path
   d="m 180.10467,39.911221 q -0.864,0 -1.264,-0.384 -0.384,-0.384 -0.384,-1.248 v -5.328 h -1.152 v -1.36 h 0.64 q 0.4,0 0.528,-0.176 0.144,-0.192 0.144,-0.592 v -1.504 h 1.488 v 2.272 h 1.552 v 1.36 h -1.552 v 5.6 h 1.44 v 1.36 z"
   id="path44" />
     <path
   id="path42"
   d="M 172.96875 31.398438 C 172.43542 31.398437 171.95596 31.48363 171.5293 31.654297 C 171.1133 31.824964 170.75074 32.087453 170.44141 32.439453 C 170.14274 32.791453 169.91195 33.244161 169.75195 33.798828 C 169.59195 34.342828 169.51172 34.99462 169.51172 35.751953 C 169.51172 36.509286 169.59886 37.159125 169.76953 37.703125 C 169.95086 38.247125 170.19457 38.699833 170.50391 39.0625 C 170.81324 39.4145 171.18767 39.67699 171.625 39.847656 C 172.06233 40.018323 172.54179 40.103516 173.06445 40.103516 C 173.81112 40.103516 174.43617 39.948005 174.9375 39.638672 C 175.4495 39.318672 175.85368 38.897667 176.15234 38.375 L 175.19336 37.462891 C 174.96936 37.868224 174.69199 38.18225 174.36133 38.40625 C 174.04133 38.63025 173.63024 38.744141 173.12891 38.744141 C 172.54224 38.744141 172.07766 38.566844 171.73633 38.214844 C 171.40566 37.862844 171.24023 37.356646 171.24023 36.695312 L 171.24023 36.167969 L 176.32812 36.167969 L 176.32812 35.751953 C 176.32812 34.237286 176.03093 33.132786 175.43359 32.439453 C 174.84693 31.74612 174.02475 31.398437 172.96875 31.398438 z M 172.96875 32.710938 C 174.04608 32.710937 174.58398 33.382562 174.58398 34.726562 L 174.58398 35.0625 L 171.24023 35.0625 L 171.24023 34.726562 C 171.24023 34.054562 171.39079 33.553323 171.68945 33.222656 C 171.98812 32.881323 172.41408 32.710938 172.96875 32.710938 z " />
     <path
   d="m 166.15269,31.591221 h 1.648 v 8.32 h -1.648 z"
   id="path41" />
     <path
   d="m 166.96869,30.007221 q -0.992,0 -0.992,-0.848 v -0.288 q 0,-0.848 0.992,-0.848 0.992,0 0.992,0.848 v 0.288 q 0,0.848 -0.992,0.848 z"
   id="path40" />
     <path
   d="m 161.6407,40.103221 q -1.632,0 -2.512,-1.04 -0.88,-1.04 -0.88,-3.312 0,-2.272 0.88,-3.312 0.88,-1.04 2.512,-1.04 1.2,0 1.92,0.56 0.72,0.544 1.04,1.456 l -1.36,0.64 q -0.144,-0.624 -0.528,-0.944 -0.368,-0.336 -1.072,-0.336 -1.648,0 -1.648,2 v 1.952 q 0,2 1.648,2 0.72,0 1.12,-0.336 0.416,-0.352 0.64,-1.024 l 1.248,0.688 q -0.368,0.976 -1.12,1.52 -0.736,0.528 -1.888,0.528 z"
   id="path39" />
     <path
   id="path37"
   d="M 153.60938 31.398438 C 153.07604 31.398437 152.59464 31.48363 152.16797 31.654297 C 151.75197 31.824964 151.38941 32.087453 151.08008 32.439453 C 150.78141 32.791453 150.55258 33.244161 150.39258 33.798828 C 150.23258 34.342828 150.15234 34.99462 150.15234 35.751953 C 150.15234 36.509286 150.23258 37.164083 150.39258 37.71875 C 150.55258 38.26275 150.78141 38.7105 151.08008 39.0625 C 151.38941 39.4145 151.75197 39.67699 152.16797 39.847656 C 152.59464 40.018323 153.07604 40.103516 153.60938 40.103516 C 154.13204 40.103516 154.60654 40.018323 155.0332 39.847656 C 155.45987 39.67699 155.82243 39.4145 156.12109 39.0625 C 156.43043 38.7105 156.66422 38.26275 156.82422 37.71875 C 156.98422 37.164083 157.06445 36.509286 157.06445 35.751953 C 157.06445 34.99462 156.98422 34.342828 156.82422 33.798828 C 156.66422 33.244161 156.43043 32.791453 156.12109 32.439453 C 155.82243 32.087453 155.45987 31.824964 155.0332 31.654297 C 154.60654 31.48363 154.13204 31.398437 153.60938 31.398438 z M 153.60938 32.775391 C 154.16404 32.775391 154.58505 32.940818 154.87305 33.271484 C 155.17171 33.602151 155.32031 34.103391 155.32031 34.775391 L 155.32031 36.726562 C 155.32031 37.398563 155.17171 37.899802 154.87305 38.230469 C 154.58505 38.561135 154.16404 38.726563 153.60938 38.726562 C 153.05471 38.726563 152.62679 38.561135 152.32812 38.230469 C 152.04013 37.899802 151.89648 37.398563 151.89648 36.726562 L 151.89648 34.775391 C 151.89648 34.103391 152.04012 33.602151 152.32812 33.271484 C 152.62679 32.940818 153.05471 32.775391 153.60938 32.775391 z " />
     <path
   d="m 145.20869,40.103221 q -1.248,0 -2.176,-0.464 -0.912,-0.48 -1.568,-1.376 l 1.168,-1.072 q 0.496,0.688 1.136,1.056 0.64,0.368 1.456,0.368 1.984,0 1.984,-1.824 0,-0.736 -0.352,-1.12 -0.352,-0.4 -1.216,-0.608 l -0.912,-0.192 q -1.504,-0.336 -2.224,-1.072 -0.704,-0.752 -0.704,-2.096 0,-1.552 0.928,-2.352 0.944,-0.8 2.624,-0.8 1.2,0 2.016,0.416 0.832,0.4 1.44,1.264 l -1.168,1.024 q -0.432,-0.608 -0.976,-0.912 -0.528,-0.304 -1.344,-0.304 -0.912,0 -1.376,0.384 -0.448,0.368 -0.448,1.232 0,0.704 0.352,1.072 0.368,0.352 1.184,0.544 l 0.912,0.208 q 0.8,0.176 1.36,0.448 0.56,0.256 0.912,0.64 0.368,0.384 0.528,0.912 0.16,0.512 0.16,1.2 0,1.68 -0.976,2.56 -0.96,0.864 -2.72,0.864 z"
   id="path36" />
     <path
   d="m 136.15269,39.911221 q -0.864,0 -1.248,-0.384 -0.384,-0.4 -0.384,-1.232 v -10.224 h 1.648 v 10.48 h 0.992 v 1.36 z"
   id="path35" />
     <path
   id="path33"
   d="M 129.17578 31.398438 C 128.48245 31.398438 127.89602 31.54899 127.41602 31.847656 C 126.94668 32.146323 126.57421 32.530667 126.29688 33 L 127.27344 33.894531 C 127.5081 33.489198 127.76368 33.201917 128.04102 33.03125 C 128.32902 32.860583 128.66979 32.775391 129.06445 32.775391 C 129.57645 32.775391 129.95088 32.904156 130.18555 33.160156 C 130.42021 33.40549 130.53711 33.794792 130.53711 34.328125 L 130.53711 35.126953 L 129.16016 35.126953 C 128.12549 35.126953 127.34193 35.34587 126.80859 35.783203 C 126.27526 36.220536 126.00781 36.8555 126.00781 37.6875 C 126.00781 38.4555 126.19998 39.051849 126.58398 39.478516 C 126.97865 39.894516 127.57199 40.103516 128.36133 40.103516 C 128.89466 40.103516 129.34241 39.964833 129.70508 39.6875 C 130.07841 39.410167 130.32407 39.020865 130.44141 38.519531 L 130.63281 38.519531 C 130.63281 38.999531 130.74475 39.352172 130.96875 39.576172 C 131.19275 39.800172 131.50678 39.912109 131.91211 39.912109 L 132.96875 39.912109 L 132.96875 38.550781 L 132.18555 38.550781 L 132.18555 34.263672 C 132.18555 33.325005 131.93493 32.614766 131.43359 32.134766 C 130.93226 31.644099 130.17845 31.398438 129.17578 31.398438 z M 129.24023 36.230469 L 130.53711 36.230469 L 130.53711 37.382812 C 130.53711 37.585479 130.49354 37.777651 130.4082 37.958984 C 130.32287 38.129651 130.20597 38.27825 130.05664 38.40625 C 129.91797 38.53425 129.74759 38.636271 129.54492 38.710938 C 129.35292 38.785604 129.13896 38.822266 128.9043 38.822266 C 128.53096 38.822266 128.23181 38.737073 128.00781 38.566406 C 127.79448 38.385073 127.68945 38.107708 127.68945 37.734375 L 127.68945 37.351562 C 127.68945 36.604896 128.20557 36.230469 129.24023 36.230469 z " />
     <path
   d="m 122.07271,40.103221 q -1.632,0 -2.512,-1.04 -0.88,-1.04 -0.88,-3.312 0,-2.272 0.88,-3.312 0.88,-1.04 2.512,-1.04 1.2,0 1.92,0.56 0.72,0.544 1.04,1.456 l -1.36,0.64 q -0.144,-0.624 -0.528,-0.944 -0.368,-0.336 -1.072,-0.336 -1.648,0 -1.648,2 v 1.952 q 0,2 1.648,2 0.72,0 1.12,-0.336 0.416,-0.352 0.64,-1.024 l 1.248,0.688 q -0.368,0.976 -1.12,1.52 -0.736,0.528 -1.888,0.528 z"
   id="path32" />
     <path
   d="m 115.32072,31.591221 h 1.648 v 8.32 h -1.648 z"
   id="path31" />
     <path
   d="m 116.13672,30.007221 q -0.992,0 -0.992,-0.848 v -0.288 q 0,-0.848 0.992,-0.848 0.992,0 0.992,0.848 v 0.288 q 0,0.848 -0.992,0.848 z"
   id="path30" />
     <path
   d="m 102.56873,39.911221 v -8.32 h 1.648 v 1.376 h 0.192 q 0.496,-1.568 2,-1.568 1.552,0 2.064,1.6 h 0.176 q 0.256,-0.816 0.816,-1.2 0.56,-0.4 1.408,-0.4 1.072,0 1.664,0.768 0.608,0.752 0.608,2.224 v 5.52 h -1.648 v -5.296 q 0,-0.88 -0.336,-1.344 -0.32,-0.464 -0.992,-0.464 -0.608,0 -1.056,0.4 -0.432,0.384 -0.432,1.088 v 5.616 h -1.648 v -5.296 q 0,-0.88 -0.336,-1.344 -0.32,-0.464 -0.992,-0.464 -0.624,0 -1.056,0.4 -0.432,0.384 -0.432,1.088 v 5.616 z"
   id="path29" />
     <path
   id="path27"
   d="M 97.400391 31.398438 C 96.867057 31.398437 96.387604 31.48363 95.960938 31.654297 C 95.544938 31.824964 95.18238 32.087453 94.873047 32.439453 C 94.57438 32.791453 94.345547 33.244161 94.185547 33.798828 C 94.025547 34.342828 93.945312 34.99462 93.945312 35.751953 C 93.945313 36.509286 94.025547 37.164083 94.185547 37.71875 C 94.345547 38.26275 94.57438 38.7105 94.873047 39.0625 C 95.18238 39.4145 95.544937 39.67699 95.960938 39.847656 C 96.387604 40.018323 96.867057 40.103516 97.400391 40.103516 C 97.923057 40.103516 98.397552 40.018323 98.824219 39.847656 C 99.250885 39.67699 99.613443 39.4145 99.912109 39.0625 C 100.22144 38.7105 100.45719 38.26275 100.61719 37.71875 C 100.77719 37.164083 100.85742 36.509286 100.85742 35.751953 C 100.85742 34.99462 100.77719 34.342828 100.61719 33.798828 C 100.45719 33.244161 100.22144 32.791453 99.912109 32.439453 C 99.613443 32.087453 99.250885 31.824964 98.824219 31.654297 C 98.397552 31.48363 97.923057 31.398437 97.400391 31.398438 z M 97.400391 32.775391 C 97.955057 32.775391 98.376062 32.940818 98.664062 33.271484 C 98.962729 33.602151 99.113281 34.103391 99.113281 34.775391 L 99.113281 36.726562 C 99.113281 37.398563 98.962729 37.899802 98.664062 38.230469 C 98.376062 38.561135 97.955057 38.726563 97.400391 38.726562 C 96.845724 38.726563 96.41976 38.561135 96.121094 38.230469 C 95.833094 37.899802 95.689453 37.398563 95.689453 36.726562 L 95.689453 34.775391 C 95.689453 34.103391 95.833094 33.602151 96.121094 33.271484 C 96.41976 32.940818 96.845724 32.775391 97.400391 32.775391 z " />
     <path
   d="m 86.072724,39.911221 v -8.32 h 1.648 v 1.376 h 0.192 q 0.496,-1.568 2.048,-1.568 1.12,0 1.728,0.768 0.624,0.752 0.624,2.224 v 5.52 h -1.648 v -5.296 q 0,-0.88 -0.336,-1.344 -0.336,-0.464 -1.056,-0.464 -0.656,0 -1.104,0.4 -0.448,0.384 -0.448,1.088 v 5.616 z"
   id="path26" />
     <path
   id="path24"
   d="M 80.904297 31.398438 C 80.370964 31.398437 79.89151 31.48363 79.464844 31.654297 C 79.048844 31.824964 78.686286 32.087453 78.376953 32.439453 C 78.078286 32.791453 77.849453 33.244161 77.689453 33.798828 C 77.529453 34.342828 77.449219 34.99462 77.449219 35.751953 C 77.449219 36.509286 77.529453 37.164083 77.689453 37.71875 C 77.849453 38.26275 78.078286 38.7105 78.376953 39.0625 C 78.686286 39.4145 79.048844 39.67699 79.464844 39.847656 C 79.89151 40.018323 80.370964 40.103516 80.904297 40.103516 C 81.426964 40.103516 81.901458 40.018323 82.328125 39.847656 C 82.754792 39.67699 83.117349 39.4145 83.416016 39.0625 C 83.725349 38.7105 83.961094 38.26275 84.121094 37.71875 C 84.281094 37.164083 84.361328 36.509286 84.361328 35.751953 C 84.361328 34.99462 84.281094 34.342828 84.121094 33.798828 C 83.961094 33.244161 83.725349 32.791453 83.416016 32.439453 C 83.117349 32.087453 82.754792 31.824964 82.328125 31.654297 C 81.901458 31.48363 81.426964 31.398437 80.904297 31.398438 z M 80.904297 32.775391 C 81.458964 32.775391 81.879969 32.940818 82.167969 33.271484 C 82.466635 33.602151 82.617188 34.103391 82.617188 34.775391 L 82.617188 36.726562 C 82.617188 37.398563 82.466635 37.899802 82.167969 38.230469 C 81.879969 38.561135 81.458964 38.726563 80.904297 38.726562 C 80.34963 38.726563 79.923667 38.561135 79.625 38.230469 C 79.337 37.899802 79.193359 37.398563 79.193359 36.726562 L 79.193359 34.775391 C 79.193359 34.103391 79.337 33.602151 79.625 33.271484 C 79.923667 32.940818 80.34963 32.775391 80.904297 32.775391 z " />
     <path
   d="m 72.472718,39.911221 v -8.32 h 1.648 v 1.648 h 0.192 q 0.176,-0.8 0.656,-1.216 0.496,-0.432 1.248,-0.432 h 0.416 v 1.68 h -0.704 q -0.88,0 -1.344,0.336 -0.464,0.336 -0.464,1.072 v 5.232 z"
   id="path23" />
     <path
   d="m 69.272733,39.911221 q -0.864,0 -1.264,-0.384 -0.384,-0.384 -0.384,-1.248 v -5.328 h -1.152 v -1.36 h 0.64 q 0.4,0 0.528,-0.176 0.144,-0.192 0.144,-0.592 v -1.504 h 1.488 v 2.272 h 1.552 v 1.36 h -1.552 v 5.6 h 1.44 v 1.36 z"
   id="path22" />
     <path
   d="m 62.56875,40.103221 q -1.04,0 -1.808,-0.384 -0.752,-0.4 -1.312,-1.152 l 1.056,-0.976 q 0.416,0.592 0.912,0.896 0.496,0.288 1.168,0.288 0.656,0 1.008,-0.288 0.352,-0.304 0.352,-0.88 0,-0.448 -0.224,-0.72 -0.224,-0.272 -0.816,-0.384 l -0.72,-0.128 q -1.264,-0.224 -1.856,-0.784 -0.592,-0.56 -0.592,-1.664 0,-1.296 0.752,-1.904 0.752,-0.624 2.064,-0.624 0.96,0 1.632,0.336 0.688,0.32 1.2,0.944 l -0.992,0.976 q -0.336,-0.464 -0.816,-0.688 -0.464,-0.24 -1.008,-0.24 -1.248,0 -1.248,1.136 0,0.496 0.256,0.736 0.256,0.24 0.816,0.336 l 0.736,0.144 q 1.296,0.224 1.84,0.8 0.56,0.56 0.56,1.552 0,1.264 -0.768,1.968 -0.768,0.704 -2.192,0.704 z"
   id="path21" />
     <path
   id="text3-2"
   d="M 53.160156 28.744141 L 49.816406 39.912109 L 51.480469 39.912109 L 52.345703 36.822266 L 56.105469 36.822266 L 56.96875 39.912109 L 58.681641 39.912109 L 55.320312 28.744141 L 53.160156 28.744141 z M 54.105469 30.279297 L 54.3125 30.279297 L 54.664062 31.912109 L 55.705078 35.431641 L 52.759766 35.431641 L 53.751953 31.912109 L 54.105469 30.279297 z " />
</svg>
