<svg xmlns="http://www.w3.org/2000/svg">
   <defs>
      <symbol id="at-sign" viewBox="0 0 24 24">
         <circle cx="12" cy="12" r="4" />
         <path d="M16 8v5a3 3 0 0 0 6 0v-1a10 10 0 1 0-3.92 7.94" />
      </symbol>
      <symbol id="facebook" viewBox="0 0 24 24">
         <path d="M18 2h-3a5 5 0 0 0-5 5v3H7v4h3v8h4v-8h3l1-4h-4V7a1 1 0 0 1 1-1h3z" />
      </symbol>
      <symbol id="github" viewBox="0 0 24 24">
         <path d="M9 19c-5 1.5-5-2.5-7-3m14 6v-3.87a3.37 3.37 0 0 0-.94-2.61c3.14-.35 6.44-1.54 6.44-7A5.44 5.44 0 0 0 20 4.77 5.07 5.07 0 0 0 19.91 1S18.73.65 16 2.48a13.38 13.38 0 0 0-7 0C6.27.65 5.09 1 5.09 1A5.07 5.07 0 0 0 5 4.77a5.44 5.44 0 0 0-1.5 3.78c0 5.42 3.3 6.61 6.44 7A3.37 3.37 0 0 0 9 18.13V22" />
      </symbol>
      <symbol id="instagram" viewBox="0 0 24 24">
         <rect x="2" y="2" width="20" height="20" rx="5" ry="5" />
         <path d="M16 11.37A4 4 0 1 1 12.63 8 4 4 0 0 1 16 11.37z" />
         <line x1="17.5" y1="6.5" x2="17.51" y2="6.5" />
      </symbol>
      <symbol id="mail" viewBox="0 0 24 24">
         <path d="M4 4h16c1.1 0 2 .9 2 2v12c0 1.1-.9 2-2 2H4c-1.1 0-2-.9-2-2V6c0-1.1.9-2 2-2z" />
         <polyline points="22,6 12,13 2,6" />
      </symbol>
      <symbol id="map-pin" viewBox="0 0 24 24">
         <path d="M21 10c0 7-9 13-9 13s-9-6-9-13a9 9 0 0 1 18 0z" />
         <circle cx="12" cy="10" r="3" />
      </symbol>
      <symbol id="map" viewBox="0 0 24 24">
         <polygon points="1 6 1 22 8 18 16 22 23 18 23 2 16 6 8 2 1 6" />
         <line x1="8" y1="2" x2="8" y2="18" />
         <line x1="16" y1="6" x2="16" y2="22" />
      </symbol>
      <symbol id="phone-call" viewBox="0 0 24 24">
         <path
            d="M15.05 5A5 5 0 0 1 19 8.95M15.05 1A9 9 0 0 1 23 8.94m-1 7.98v3a2 2 0 0 1-2.18 2 19.79 19.79 0 0 1-8.63-3.07 19.5 19.5 0 0 1-6-6 19.79 19.79 0 0 1-3.07-8.67A2 2 0 0 1 4.11 2h3a2 2 0 0 1 2 1.72 12.84 12.84 0 0 0 .7 2.81 2 2 0 0 1-.45 2.11L8.09 9.91a16 16 0 0 0 6 6l1.27-1.27a2 2 0 0 1 2.11-.45 12.84 12.84 0 0 0 2.81.7A2 2 0 0 1 22 16.92z" />
      </symbol>
      <symbol id="twitch" viewBox="0 0 24 24">
         <path d="M21 2H3v16h5v4l4-4h5l4-4V2zm-10 9V7m5 4V7" />
      </symbol>
      <symbol id="twitter" viewBox="0 0 24 24">
         <path
            d="M23 3a10.9 10.9 0 0 1-3.14 1.53 4.48 4.48 0 0 0-7.86 3v1A10.66 10.66 0 0 1 3 4s-4 9 5 13a11.64 11.64 0 0 1-7 2c9 5 20 0 20-11.5a4.5 4.5 0 0 0-.08-.83A7.72 7.72 0 0 0 23 3z" />
      </symbol>
      <symbol id="youtube" viewBox="0 0 24 24">
         <path
            d="M22.54 6.42a2.78 2.78 0 0 0-1.94-2C18.88 4 12 4 12 4s-6.88 0-8.6.46a2.78 2.78 0 0 0-1.94 2A29 29 0 0 0 1 11.75a29 29 0 0 0 .46 5.33A2.78 2.78 0 0 0 3.4 19c1.72.46 8.6.46 8.6.46s6.88 0 8.6-.46a2.78 2.78 0 0 0 1.94-2 29 29 0 0 0 .46-5.25 29 29 0 0 0-.46-5.33z" />
         <polygon points="9.75 15.02 15.5 11.75 9.75 8.48 9.75 15.02" />
      </symbol>
      <symbol id="bsky" viewBox="0 0 24 24">
         <path
            d="m 5.7268806,3.5626967 c 2.5392118,1.9062801 5.2704224,5.7714222 6.2731854,7.8456823 1.002839,-2.0741073 3.733897,-5.9394411 6.273186,-7.8456823 1.832161,-1.3754957 4.800735,-2.4397759 4.800735,0.94682 0,0.6763498 -0.387778,5.6816853 -0.615214,6.4942813 -0.790563,2.825149 -3.671348,3.545717 -6.233854,3.109596 4.479211,0.762344 5.618679,3.287503 3.157863,5.812663 -4.673577,4.795771 -6.557648,-2.126906 -7.382666,-2.719853 -0.768003,0.581544 -2.7090527,7.515777 -7.3828959,2.719853 C 2.1563658,17.400897 3.2957958,14.875585 7.7750826,14.113394 5.212501,14.549515 2.3316769,13.828943 1.5412284,11.003798 1.3137854,10.191126 0.92601493,5.1857896 0.92601493,4.5095167 c 0,-3.3865959 2.96865097,-2.3223157 4.80073517,-0.94682 z" />
      </symbol>
      <symbol id="xitter" viewBox="0 0 24 24">
         <path d="M 2.7393208,22.205345 10.50156,13.328316" />
         <path d="M 14.125524,10.344485 21.309725,2.045496" />
         <path d="M 7.3387914,2.0384566 21.067746,22.186456 16.732111,22.189282 2.7991542,2.0500263 Z" />
      </symbol>
   </defs>
</svg>