<?xml version="1.0" encoding="UTF-8" standalone="no"?>
<svg
   width="48mm"
   height="48mm"
   version="1.1"
   id="svg686"
   xml:space="preserve"
   xmlns="http://www.w3.org/2000/svg"
   xmlns:svg="http://www.w3.org/2000/svg"><defs
     id="defs686" /><rect
     style="fill:#ffffff;stroke-width:0.905088"
     id="rect1238"
     width="180"
     height="180"
     x="0.70866144"
     y="0.70866144"
     rx="8.5094004"
     ry="8.3362093" /><path
     id="path1238"
     d="m 10.708661,10.708665 v 3.2651 3.2651 3.26509 3.26679 3.2651 3.2651 3.2651 h 3.266787 3.265099 3.265099 3.265101 3.2651 3.265098 3.2651 v -3.2651 -3.2651 -3.2651 -3.26679 -3.26509 -3.2651 -3.2651 h -3.2651 -3.265098 -3.2651 -3.265101 -3.265099 -3.265099 z m 42.449668,0 v 3.2651 h 3.265099 v -3.2651 z m 3.265099,3.2651 v 3.2651 H 53.158329 49.89323 v 3.26509 3.26679 3.2651 h 3.265099 v -3.2651 h 3.265099 v -3.26679 h 3.2651 v 3.26679 3.2651 h -3.2651 v 3.2651 3.2651 3.2651 H 53.158329 49.89323 v 3.2651 3.2651 3.2651 3.26679 3.26509 h 3.265099 3.265099 v -3.26509 -3.26679 h -3.265099 v -3.2651 -3.2651 h 3.265099 v 3.2651 h 3.2651 v 3.2651 h 3.265099 v -3.2651 h 3.2651 v -3.2651 h -3.2651 v -3.2651 -3.2651 h -3.265099 v -3.2651 h 3.265099 v -3.2651 h 3.2651 v -3.2651 h -3.2651 v -3.26679 h 3.2651 v 3.26679 h 3.266786 3.2651 v -3.26679 h -3.2651 v -3.26509 h -3.266786 v -3.2651 h -3.2651 v 3.2651 h -3.265099 v -3.2651 z m 9.795299,0 h 3.266786 v -3.2651 h -3.266786 z m 3.266786,0 v 3.2651 h 3.2651 v -3.2651 z m 3.2651,9.79698 v 3.2651 h 3.2651 v -3.2651 z m -6.531886,3.2651 v 3.2651 h 3.266786 v -3.2651 z m 3.266786,3.2651 v 3.2651 3.2651 h 3.2651 v -3.2651 -3.2651 z m 3.2651,6.5302 v 3.2651 h -3.2651 v 3.2651 3.2651 h 3.2651 3.2651 3.2651 v 3.26679 h 3.2651 v -3.26679 h 3.265099 3.265099 3.265098 v 3.26679 h -3.265098 v 3.26509 h -3.265099 v -3.26509 h -3.265099 v 3.26509 h -3.2651 v 3.2651 h 3.2651 3.265099 3.265099 3.265098 v -3.2651 h 3.266787 v -3.26509 -3.26679 h 3.265101 v -3.2651 h -3.265101 v -3.2651 h 3.265101 v -3.2651 -3.2651 -3.2651 h 3.265093 v -3.2651 h -3.265093 v -3.2651 h -3.265101 -3.266787 v -3.26679 h -3.265098 v -3.26509 h -3.265099 v 3.26509 h -3.265099 -3.2651 v 3.26679 h 3.2651 v 3.2651 3.2651 3.2651 h -3.2651 v 3.2651 3.2651 3.2651 h -3.2651 v -3.2651 -3.2651 z m 6.5302,-3.2651 v -3.2651 h -3.2651 v 3.2651 z m 0,-13.06209 v -3.26509 h -3.2651 v 3.26509 z m 6.530199,-3.26509 v -3.2651 h -3.265099 v 3.2651 z m -3.265099,-3.2651 v -3.2651 h -3.2651 -3.2651 v 3.2651 h 3.2651 z m 6.530198,3.2651 h 3.265098 3.266787 v -3.2651 h -3.266787 v -3.2651 h -3.265098 v 3.2651 z m 13.062079,9.79698 h 3.2651 v -3.2651 h -3.2651 z m 3.2651,0 v 3.2651 h 3.2651 v -3.2651 z m 3.2651,0 h 3.26511 3.26509 3.2651 v -3.2651 h 3.26511 v -3.26679 h 3.26678 v 3.26679 h 3.26509 3.26511 v -3.26679 h -3.26511 v -3.26509 h 3.26511 v 3.26509 h 3.2651 v -3.26509 h 3.2651 v 3.26509 3.26679 h 3.26509 v -3.26679 h 3.26511 v -3.26509 -3.2651 -3.2651 h -3.26511 v 3.2651 h -3.26509 -3.2651 v -3.2651 h -3.2651 -3.26511 -3.26509 -3.26678 v 3.2651 3.2651 h -3.26511 -3.2651 v 3.26509 h -3.26509 v 3.26679 h -3.26511 z m 3.26511,-6.53189 v -3.26509 h -3.26511 -3.2651 v -3.2651 -3.2651 h -3.2651 -3.265093 v 3.2651 h 3.265093 v 3.2651 h -3.265093 v 3.26509 h 3.265093 3.2651 3.2651 z m 19.59228,3.26679 v 3.2651 h -3.26511 v 3.2651 3.2651 h -3.26509 v 3.2651 h 3.26509 v 3.2651 h -3.26509 -3.26678 v 3.2651 3.2651 h 3.26678 v 3.26679 h 3.26509 v -3.26679 h 3.26511 v 3.26679 h -3.26511 v 3.26509 h 3.26511 3.2651 v 3.2651 h -3.2651 -3.26511 v 3.2651 h 3.26511 v 3.2651 h 3.2651 v -3.2651 h 3.2651 3.26509 v -3.2651 h -3.26509 v -3.2651 h 3.26509 v -3.26509 h -3.26509 -3.2651 v -3.26679 -3.2651 h -3.2651 v -3.2651 -3.2651 h 3.2651 3.2651 3.26509 v -3.2651 h -3.26509 v -3.2651 -3.2651 h -3.2651 v -3.2651 z m 9.79529,9.7953 h 3.26511 v -3.2651 h -3.26511 z m -6.53019,9.7953 h 3.2651 3.26509 3.26511 v -3.2651 h -3.26511 -3.26509 -3.2651 z m 9.7953,-3.2651 h 3.26509 v 3.2651 h 3.26679 v 3.2651 h 3.26511 v 3.26679 3.26509 h 3.26509 3.2651 v -3.26509 h 3.2651 3.2651 v 3.26509 h 3.2651 v -3.26509 -3.26679 -3.2651 h -3.2651 v 3.2651 h -3.2651 v -3.2651 -3.2651 h -3.2651 v -3.2651 h -3.2651 -3.26509 v 3.2651 h 3.26509 v 3.2651 h 3.2651 v 3.2651 h -3.2651 v -3.2651 h -3.26509 v -3.2651 h -3.26511 v -3.2651 h -3.26679 -3.26509 z m 19.59228,0 h 3.2651 v -3.2651 h -3.2651 z m -13.0604,6.5302 h -3.26679 v 3.26679 h -3.26509 v 3.26509 h 3.26509 v 3.2651 h 3.26679 v -3.2651 -3.26509 z m -3.26679,9.79698 h -3.26509 v 3.2651 3.2651 h -3.26511 -3.26509 -3.2651 v 3.2651 h 3.2651 v 3.2651 h 3.26509 3.26511 v -3.2651 h 3.26509 v -3.2651 -3.2651 z m 0,9.7953 v 3.2651 h 3.26679 3.26511 3.26509 v -3.2651 h 3.2651 3.2651 v -3.2651 h 3.2651 v -3.2651 h 3.2651 v -3.2651 h -3.2651 -3.2651 v 3.2651 h -3.2651 -3.2651 v 3.2651 h -3.26509 -3.26511 v 3.2651 z m 9.79699,-6.5302 v -3.2651 h -3.26509 v 3.2651 z m 9.7953,3.2651 v 3.2651 h 3.2651 v -3.2651 z m 0,3.2651 h -3.2651 v 3.2651 h -3.2651 -3.2651 v 3.2651 3.2651 h 3.2651 v -3.2651 h 3.2651 3.2651 v 3.2651 h 3.2651 v -3.2651 -3.2651 h -3.2651 z m 0,9.7953 h -3.2651 v 3.26679 h 3.2651 z m -32.65268,-9.7953 h -3.2651 v -3.2651 h -3.26511 v 3.2651 3.2651 h 3.26511 3.2651 z m 9.7953,-16.32549 v -3.26679 h -3.26511 v 3.26679 z m 0,-3.26679 h 3.26509 v -3.2651 h -3.26509 z m -16.32551,9.79698 v -3.2651 h -3.26509 v 3.2651 z m -6.53187,-9.79698 h -3.26511 v -3.2651 -3.2651 h -3.2651 v -3.2651 h -3.26509 v -3.2651 -3.2651 h -3.26511 v 3.2651 h -3.2651 v 3.2651 h 3.2651 v 3.2651 h -3.2651 v 3.2651 h -3.2651 v 3.2651 3.26679 3.26509 h 3.2651 v -3.26509 -3.26679 h 3.2651 v -3.2651 h 3.26511 3.26509 v 3.2651 3.26679 3.26509 h 3.2651 v -3.26509 h 3.26511 z m -3.26511,6.53188 v 3.2651 h 3.26511 v -3.2651 z m -9.7953,-6.53188 v 3.26679 3.26509 3.2651 h 3.26511 v -3.2651 -3.26509 -3.26679 z m 3.26511,9.79698 v 3.2651 3.2651 h 3.26509 v -3.2651 -3.2651 z m 3.26509,6.5302 v 3.2651 h -3.26509 v 3.2651 h -3.26511 -3.2651 v 0.0996 c 1.20235,0.21175 2.31116,0.68152 3.2651,1.34991 0.71619,0.50182 1.34556,1.11598 1.86119,1.81564 h 1.40392 3.26509 3.2651 v 3.26509 h 3.26511 v -3.26509 h 3.26678 v -3.2651 h -3.26678 v -3.2651 h 3.26678 v -3.2651 h -3.26678 v -3.2651 h -3.26511 v 3.2651 z m 9.79699,9.7953 v 3.2651 h 3.26509 v -3.2651 z m 3.26509,3.2651 v 3.26679 h 3.26511 v -3.26679 z m -19.59228,-19.5906 h -3.2651 -3.2651 v 3.2651 h 3.2651 v 3.2651 3.2651 h 3.2651 v -3.2651 -3.2651 z m -6.5302,3.2651 h -3.265093 v 3.2651 h -3.265101 v -3.2651 h 3.265101 v -3.2651 h 3.265093 v -3.2651 h -3.265093 -3.265101 v 3.2651 h -3.266787 v 3.2651 3.2651 3.2651 h 3.266787 3.265101 v 3.2381 h 3.265093 v -3.2381 -3.2651 z m 0,-16.32718 v -3.2651 h -3.265093 v 3.2651 z m 3.2651,-9.7953 v -3.2651 h -3.2651 v 3.2651 z m 9.7953,3.2651 h 3.2651 v -3.2651 -3.2651 h -3.2651 v 3.2651 z m 9.79699,-3.2651 v -3.2651 h -3.26678 v 3.2651 z m -45.714767,22.85738 h -3.2651 v 3.2651 h 3.2651 z m 0,3.2651 v 3.2651 3.2651 h -3.2651 v 3.2651 h -3.2651 v -3.2651 -3.2651 h -3.2651 v 3.2651 h -3.266786 v 3.2651 h 3.266786 v 3.2651 h 1.505153 c 0.491165,-0.66662 1.085612,-1.255 1.759947,-1.74307 0.949825,-0.68749 2.059095,-1.1758 3.2651,-1.40391 0.28801,-0.0544 0.58094,-0.0942 0.879129,-0.11812 0.222863,-0.0179 0.448928,-0.027 0.676644,-0.027 h 1.709327 3.2651 3.265099 3.265099 v -3.2381 h -3.265099 v -3.2651 h -3.265099 v -3.2651 z m 6.530199,3.2651 h 3.265099 v -3.2651 h -3.265099 z m -19.592285,6.5302 h -3.2651 v 3.2651 h -3.265099 v 3.2651 h 3.265099 3.2651 v -3.2651 z m 0,6.5302 v 3.26679 h -3.2651 -3.265099 v 3.2651 3.2651 h 3.265099 v 3.2651 h 3.2651 v -3.2651 h 3.238101 v -3.2651 -3.2651 -1.85782 c 0,-0.2283 0.0097,-0.45499 0.02869,-0.67833 v -0.73064 z m -6.530199,9.79699 h -3.2651 v -3.2651 -3.2651 h -3.265099 v 3.2651 H 49.89323 v -3.2651 h -3.265101 v 3.2651 3.2651 h 3.265101 v 3.2651 h 3.265099 v 3.26509 H 49.89323 46.628129 v 3.2651 3.26511 H 43.36303 v -3.26511 h -3.265099 v -3.2651 h 3.265099 v -3.26509 h 3.265099 v -3.2651 H 43.36303 v -3.2651 h -3.265099 -3.266786 v -3.2651 h -3.2651 v 3.2651 h -3.2651 v -3.2651 h -3.265098 v 3.2651 h -3.2651 v 3.2651 h -3.265101 v 3.2651 h -3.265099 v -3.2651 h -3.265099 v 3.2651 3.26509 h 3.265099 v 3.2651 h 3.265099 3.265101 v 3.26511 h -3.265101 -3.265099 -3.265099 v 3.265095 h 3.265099 v 3.26678 3.2651 h 3.265099 3.265101 v -3.2651 h -3.265101 v -3.26678 h 3.265101 3.2651 v 3.26678 h 3.265098 3.2651 v -3.26678 h -3.2651 v -3.265095 h 3.2651 v 3.265095 h 3.2651 3.266786 v 3.26678 h -3.266786 -3.2651 v 3.2651 h -3.2651 -3.265098 v 3.26511 h 3.265098 3.2651 3.2651 v -3.26511 h 3.266786 3.265099 3.265099 v -3.2651 H 43.36303 v -3.26678 h 3.265099 3.265101 v -3.265095 h 3.265099 v -3.26511 h 3.265099 v 3.26511 h -3.265099 v 3.265095 h 3.265099 3.2651 3.265099 v -3.265095 h 3.2651 v -3.26511 h 3.238101 v -3.2651 h -3.238101 -3.2651 -3.265099 v -3.26509 z m 6.530199,13.0604 v 3.265095 h 3.238101 V 98.871415 Z M 53.158329,102.13651 H 49.89323 v 3.26678 3.2651 3.26511 h 3.265099 3.265099 v 3.26509 h 3.2651 v -3.26509 h 3.265099 3.2651 v 3.26509 h 3.266786 v -3.26509 h 3.2651 3.2651 v -0.14005 c -1.206005,-0.22815 -2.315275,-0.71633 -3.2651,-1.40392 -0.666833,-0.48273 -1.255113,-1.06356 -1.743074,-1.72114 -0.70473,-0.94971 -1.199783,-2.0595 -1.420782,-3.2651 h -0.101244 v 3.2651 h -3.266786 -3.2651 -3.265099 v -3.2651 h -3.2651 v 3.2651 h -3.265099 v -3.2651 z m 13.060398,13.06208 h -3.2651 v 3.2651 h 3.2651 z m -3.2651,3.2651 h -3.265099 v 3.26511 h -3.2651 v 3.26509 h -3.265099 v 3.2651 h 3.265099 3.2651 v -3.2651 h 3.265099 v -3.26509 z m 0,6.5302 v 3.2651 h 3.2651 v -3.2651 z m 3.2651,0 h 3.266786 v 3.2651 h 3.2651 v -3.2651 h 3.2651 3.2651 3.2651 v -3.26509 -3.26511 h 3.265099 v -3.2651 h -3.265099 -3.2651 v 3.2651 h -3.2651 v 3.26511 h -3.2651 -3.2651 -3.266786 z m 19.592285,-9.7953 h 3.265099 3.265098 v 3.2651 3.26511 h -3.265098 v 3.26509 h 3.265098 v 3.2651 h -3.265098 -3.265099 -3.265099 v 3.26511 h 3.265099 3.265099 v 3.26678 3.2651 h -3.265099 v 3.26509 h -3.265099 v 3.26511 h -3.2651 v -3.26511 h -3.2651 v -3.26509 -3.2651 h -3.2651 v 3.2651 3.26509 h -3.2651 v 3.26511 h 3.2651 v 3.26509 3.2651 h -3.2651 v 3.26511 h 3.2651 v 3.26509 h 3.2651 v -3.26509 h 3.2651 v 3.26509 3.26679 h 3.2651 v 3.2651 h 3.265099 v -3.2651 h 3.265099 3.265098 v -3.26679 h 3.266787 3.265101 3.265093 v 3.26679 h -3.265093 v 3.2651 h 3.265093 3.2651 3.2651 v -3.2651 h 3.26511 v 3.2651 h 3.26509 v -3.2651 h 3.2651 3.26511 v 3.2651 3.2651 h 3.26678 3.26509 v -3.2651 h 3.26511 3.2651 v -3.2651 h 3.2651 3.26509 3.26511 3.26509 v -3.26679 h 3.26679 3.26511 3.26509 v -3.26509 h 3.2651 v -3.26511 h 3.2651 v -3.2651 h 3.2651 v -3.26509 h 3.2651 v -3.26511 -3.26509 -3.2651 h -3.2651 -3.2651 v -3.26678 h -3.2651 v 3.26678 h -3.2651 v -3.26678 h -3.26509 -3.26511 -3.26679 -3.26509 -3.26511 v -3.26511 -3.2651 h -3.26509 -3.2651 v -3.26509 h -3.2651 v 3.26509 3.2651 h 3.2651 v 3.26511 3.26678 h 3.2651 3.26509 3.26511 v 3.2651 h 3.26509 3.26679 v -3.2651 h 3.26511 v 3.2651 h -3.26511 v 3.26509 h -3.26679 -3.26509 v -3.26509 h -3.26511 -3.26509 -3.2651 v 3.26509 3.26511 h 3.2651 v 3.26509 h 3.26509 v 3.2651 3.26511 h -3.26509 -3.2651 v 3.26509 h -3.2651 v 3.26679 h -3.26511 v -3.26679 h -3.26509 -3.26678 v -3.26509 h 3.26678 3.26509 v -3.26511 h 3.26511 3.2651 3.2651 v -3.2651 h -3.2651 -3.2651 v -3.26509 -3.26511 h -3.26511 -3.26509 v 3.26511 h 3.26509 v 3.26509 h -3.26509 v -3.26509 h -3.26678 v 3.26509 3.2651 h -3.26511 v 3.26511 3.26509 h -3.2651 v -3.26509 h -3.26509 v -3.26511 -3.2651 h 3.26509 v -3.26509 h -3.26509 v -3.26511 h 3.26509 v -3.26509 -3.2651 -3.26678 h -3.26509 v -3.26511 h -3.26511 v 3.26511 h -3.2651 v 3.26678 h 3.2651 3.26511 v 3.2651 h -3.26511 v 3.26509 3.26511 h -3.2651 v 3.26509 h 3.2651 v 3.2651 3.26511 3.26509 h -3.2651 v -3.26509 -3.26511 -3.2651 h -3.2651 v -3.26509 -3.26511 -3.26509 h -3.265093 v 3.26509 h -3.265101 -3.266787 v -3.26509 h 3.266787 v -3.2651 -3.26678 -3.26511 h 3.265101 v -3.2651 -3.26509 -3.26511 h -3.265101 v -3.2651 -3.26003 h -3.266787 -3.265098 -3.265099 z m 19.592278,16.32551 v -3.26511 h -3.2651 v 3.26511 z m -3.2651,0 h -3.265093 v 3.26678 h 3.265093 z m 13.0604,0 h 3.2651 v -3.26511 h 3.26511 v 3.26511 h 3.26678 v -3.26511 -3.2651 -3.26509 -3.26511 h 3.26509 v -3.2651 h -3.26509 -3.26678 -3.26511 v -3.26509 h 3.26511 v -3.26511 h -3.26511 -3.2651 -3.26509 v 3.26511 h -3.26511 v 3.26509 h -3.2651 v 3.2651 3.26511 h -3.2651 v 3.26509 h 3.2651 3.2651 v -3.26509 h 3.26511 v -3.26511 -3.2651 h 3.26509 v 3.2651 h 3.2651 3.26511 v 3.26511 3.26509 h -3.26511 -3.2651 v 3.2651 z m 0,-6.53021 v -3.26509 h -3.26509 v 3.26509 z m -3.26509,-16.3255 v -3.26172 c -0.22128,1.20466 -0.71645,2.31272 -1.4208,3.26172 z m 9.7953,0 h 3.26678 v -3.2651 h -3.26678 z m 6.53187,6.5302 h 3.26511 v -3.26509 h 3.2651 v -3.26511 -3.2651 h -3.2651 v 3.2651 h -3.26511 v 3.26511 z m 3.26511,-9.7953 v -3.26678 h -3.26511 v 3.26678 z m -3.26511,-3.26678 v -3.265095 -3.26511 -3.2651 h -3.26509 v 3.2651 3.26511 h -3.26678 v 3.265095 h 3.26678 z m -3.26509,-9.795305 v -3.26509 h 3.26509 v -3.2651 h -3.26509 v -3.2651 -3.2651 h -3.26678 v 3.2651 h -3.26511 v -3.2651 h -3.2651 v 3.2651 h -3.13517 v 3.2651 h 3.13517 v 3.2651 3.26509 h 3.2651 v -3.26509 h 3.26511 v 3.26509 z m -3.26678,0 h -3.26511 v 3.2651 h 3.26511 z m -3.26511,3.2651 h -3.2651 v 3.26511 h 3.2651 z m -3.2651,-16.32549 v -3.26679 h -3.26003 c 0.0824,0.45712 0.12486,0.92794 0.12486,1.40897 v 1.85782 z m 13.06208,6.5302 h 3.26511 v -3.2651 h -3.26511 z m 0,3.2651 v 3.26509 h 3.26511 3.2651 v -3.26509 h -3.2651 z m 6.53021,3.26509 v 3.2651 h -3.2651 v 3.26511 h 3.2651 3.2651 v -3.26511 -3.2651 z m 3.2651,6.53021 v 3.265095 h -3.2651 v 3.26678 h 3.2651 v 3.2651 3.26511 h -3.2651 v 3.26509 h 3.2651 v 3.2651 h 3.26509 v 3.26511 3.26509 h 3.26511 3.26509 3.26679 v -3.26509 h 3.26511 v 3.26509 3.2651 h 3.26509 v -3.2651 -3.26509 -3.26511 -3.2651 -3.26509 h 3.2651 v -3.26511 h 3.2651 v -3.2651 h 3.2651 3.2651 v -3.26678 h -3.2651 -3.2651 v -3.265095 h 3.2651 3.2651 v -3.26511 h -3.2651 -3.2651 -3.2651 v 3.26511 h -3.2651 v -3.26511 h 3.2651 v -3.2651 -3.26509 h 3.2651 v 3.26509 h 3.2651 3.2651 v -3.26509 h -3.2651 v -3.2651 h -3.2651 v -3.2651 h -3.2651 v -3.2651 h -3.2651 -3.26509 v 3.2651 h -3.26511 v -3.2651 -3.26679 -3.2651 h -3.26679 v 3.2651 3.26679 h -3.26509 -3.26511 -3.26509 v -3.26679 h -3.2651 v 3.26679 3.2651 h 3.2651 3.26509 v 3.2651 3.2651 3.26509 3.2651 3.26511 z m 0,-22.85739 h 3.26509 3.26511 v -3.2651 h -3.26511 -3.26509 z m 29.38758,9.79699 h 3.2651 v -3.2651 h -3.2651 z m -3.2651,22.857375 v 3.26511 3.26509 3.2651 h -3.2651 v 3.26511 3.26509 3.2651 h 3.2651 v -3.2651 h 3.2651 v 3.2651 h 3.2651 v -3.2651 -3.26509 h -3.2651 v -3.26511 h 3.2651 v -3.2651 h -3.2651 v -3.26509 h 3.2651 v -3.26511 h -3.2651 z m -26.12248,9.7953 h -3.2651 v 3.26511 h 3.2651 z m -13.0604,13.06041 v 3.26678 3.2651 h 3.26509 v -3.2651 -3.26678 z m 3.26509,0 h 3.26511 v -3.26511 h -3.26511 z m -3.26509,6.53188 h -3.26678 v 3.26509 h 3.26678 z m -3.26678,-6.53188 h -3.26511 v 3.26678 h 3.26511 z m -6.53021,9.79697 v 3.26511 h 3.2651 v -3.26511 z m 0,6.5302 v 3.2651 h 3.2651 v -3.2651 z m 13.06208,6.53021 v 3.26509 h 3.26511 v -3.26509 z m 39.18289,-6.53021 v 3.2651 h -3.2651 v 3.26511 h 3.2651 v 3.26509 h 3.2651 v -3.26509 -3.26511 -3.2651 z m -39.18289,19.59229 v 3.2651 h 3.26511 v -3.2651 z m -13.06208,-3.2651 v 3.2651 h -3.26509 v 3.2651 h 3.26509 3.2651 v -3.2651 -3.2651 z m -16.325493,0 h -3.265101 v 3.2651 3.2651 h 3.265101 v -3.2651 z m -13.062085,0 v 3.2651 h 3.265099 v -3.2651 z m -3.265099,0 h -3.2651 v -3.2651 h -3.2651 v 3.2651 3.2651 h -3.2651 v 3.2651 h 3.2651 3.2651 3.2651 v -3.2651 z m -13.0604,-13.06209 v -3.2651 h -3.266786 v 3.2651 z m -3.266786,0 h -3.2651 v -3.2651 h 3.2651 v -3.26509 h -3.2651 -3.265099 -3.2651 v 3.26509 h 3.2651 v 3.2651 3.26511 h 3.265099 3.2651 z m -6.530199,3.26511 h -3.2651 v 3.26509 3.26679 h 3.2651 3.265099 v -3.26679 h -3.265099 z m 3.265099,6.53188 v 3.2651 h 3.2651 v -3.2651 z m 3.2651,0 h 3.266786 v -3.26679 h -3.266786 z m 3.266786,0 v 3.2651 h 3.2651 v -3.2651 z m -6.531886,3.2651 h -3.265099 v 3.2651 h 3.265099 z m 0,3.2651 v 3.2651 h 3.2651 3.266786 v -3.2651 h -3.266786 z m -6.530199,-6.5302 H 53.158329 49.89323 46.628129 43.36303 v 3.2651 h 3.265099 3.265101 3.265099 v 3.2651 3.2651 h 3.265099 v -3.2651 -3.2651 z m -13.060398,3.2651 h -3.265099 -3.266786 v 3.2651 h 3.266786 3.265099 z m 0,3.2651 v 3.2651 h 3.265099 v -3.2651 z m 0,-6.5302 v -3.26679 -3.26509 h 3.265099 v -3.26511 H 43.36303 40.097931 36.831145 v 3.26511 3.26509 3.26679 h 3.266786 z m 13.060398,-6.53188 v -3.26511 -3.2651 h -3.265099 v 3.2651 H 49.89323 v 3.26511 h 3.265099 z m 0,-9.7953 v -3.26511 -3.26509 -3.2651 -3.26678 H 53.158329 49.89323 v 3.26678 3.2651 h 3.265099 v 3.26509 3.26511 z m 13.062085,-3.26511 v -3.26509 h -3.266786 v -3.2651 h -3.2651 v 3.2651 3.26509 h 3.2651 z m -6.531886,-6.53019 v -3.26678 h -3.265099 v 3.26678 z m 3.2651,0 h 3.266786 v -3.26678 -3.26511 h -3.266786 v 3.26511 z m 19.592285,3.2651 v -3.2651 h -3.265099 v 3.2651 z m -3.265099,-3.2651 v -3.26678 h -3.2651 v 3.26678 z m -3.2651,-3.26678 v -3.26511 h -3.2651 v 3.26511 z M 56.423428,115.19859 h -3.265099 v 3.2651 h 3.265099 z m -3.265099,3.2651 H 49.89323 v -3.2651 H 46.628129 43.36303 v -3.26509 h -3.265099 -3.266786 v 3.26509 h 3.266786 v 3.2651 h 3.265099 v 3.26511 3.26509 h 3.265099 v -3.26509 h 3.265101 3.265099 z m -16.327184,-3.2651 h -3.2651 -3.2651 -3.265098 v -3.26509 h -3.2651 v 3.26509 3.2651 3.26511 h 3.2651 v -3.26511 h 3.265098 3.2651 v 3.26511 h 3.2651 v -3.26511 z m 0,6.53021 v 3.26509 h 3.266786 v -3.26509 z m -3.2651,0 h -3.2651 -3.265098 v 3.26509 3.2651 h -3.2651 -3.265101 v 3.26511 h -3.265099 -3.265099 v 3.26678 3.2651 3.26509 h -3.266787 v 3.26511 h 3.266787 3.265099 3.265099 v -3.26511 h 3.265101 v -3.26509 h -3.265101 -3.265099 v -3.2651 h 3.265099 3.265101 3.2651 v 3.2651 h 3.265098 3.2651 v 3.26509 h 3.2651 v -3.26509 h 3.266786 v -3.2651 h 3.265099 v -3.26678 h 3.265099 v -3.26511 H 43.36303 40.097931 v 3.26511 h -3.266786 v 3.26678 h -3.2651 -3.2651 v -3.26678 h 3.2651 v -3.26511 h -3.2651 v -3.2651 h 3.2651 z m 6.531886,16.32718 v 3.26509 h 3.265099 v 3.26511 h 3.265099 3.265101 v -3.26511 h -3.265101 v -3.26509 H 43.36303 Z m -6.531886,3.26509 h -3.2651 v 3.26511 h 3.2651 z M 13.975448,92.341205 h -3.266787 v 3.2651 h 3.266787 z m 0,-6.53019 v -3.2651 h -3.266787 v 3.2651 z m 0,-3.2651 h 3.265099 v 3.2651 h 3.265099 v -3.2651 -3.2651 h -3.265099 -3.265099 z m 6.530198,-3.2651 h 3.265101 3.2651 v -3.26679 h -3.2651 v -3.2651 h 3.2651 v 3.2651 h 3.265098 v -3.2651 h 3.2651 v 3.2651 h 3.2651 v -3.2651 -3.2651 h 3.266786 3.265099 v -3.2651 h 3.265099 v -3.2651 -3.2651 H 43.36303 40.097931 v 3.2651 h -3.266786 -3.2651 -3.2651 -3.265098 v -3.2651 h -3.2651 v 3.2651 3.2651 h 3.2651 v 3.2651 h -3.2651 v -3.2651 h -3.265101 v 3.2651 h -3.265099 -3.265099 v 3.2651 3.2651 h 3.265099 3.265099 z m 0,-13.06209 v -3.2651 h -3.265099 v 3.2651 z m -3.265099,-3.2651 v -3.2651 h 3.265099 v -3.2651 h 3.265101 3.2651 v -3.2651 h 3.265098 3.2651 v 3.2651 h 3.2651 3.266786 v -3.2651 -3.26509 h -3.266786 v -3.26679 -3.2651 h -3.2651 -3.2651 -3.265098 v 3.2651 h 3.265098 3.2651 v 3.26679 h -3.2651 -3.265098 v -3.26679 h -3.2651 v 3.26679 3.26509 h -3.265101 v -3.26509 -3.26679 -3.2651 -3.2651 h -3.265099 v -3.2651 h -3.265099 v 3.2651 3.2651 h 3.265099 v 3.2651 3.26679 h -3.265099 v 3.26509 3.2651 h -3.266787 v 3.2651 h 3.266787 v 3.2651 z m -3.265099,0 h -3.266787 v 3.2651 h 3.266787 z m 0,-13.06039 v -3.26679 h -3.266787 v 3.26679 z m 6.530198,-9.79699 h 3.265101 v 3.2651 h 3.2651 v -3.2651 h 3.265098 3.2651 v -3.2651 h -3.2651 -3.265098 -3.2651 -3.265101 z m 19.592285,9.79699 h 3.265099 v 3.26509 3.2651 h 3.265099 3.265101 v -3.2651 h -3.265101 v -3.26509 -3.26679 -3.2651 -3.2651 -3.2651 H 43.36303 v -3.2651 h -3.265099 v -3.2651 h -3.266786 v 3.2651 3.2651 3.2651 h 3.266786 3.265099 v 3.2651 3.2651 h -3.265099 z m 3.265099,-16.32719 h 3.265099 v -3.2651 h 3.265101 v -3.2651 H 46.628129 43.36303 v 3.2651 z m 6.5302,-3.2651 v 3.2651 h 3.265099 v -3.2651 z m 0,26.12248 v 3.2651 3.2651 3.2651 3.2651 3.2651 3.2651 h 3.265099 v -3.2651 h 3.265099 v -3.2651 h -3.265099 v -3.2651 h 3.265099 v -3.2651 h 3.2651 v -3.2651 -3.2651 h -3.2651 v 3.2651 h -3.265099 v -3.2651 z m 9.795298,0 h 3.265099 v -3.2651 h -3.265099 z m -3.2651,9.7953 v 3.2651 h 3.2651 3.265099 v -3.2651 h -3.265099 z m -22.857383,-9.7953 h -3.2651 v 3.2651 h 3.2651 z m 3.2651,19.5906 v 3.26679 h 3.266786 3.265099 v -3.26679 h -3.265099 z m -3.2651,0 h -3.2651 v 3.26679 h 3.2651 z m 22.857383,3.26679 h 3.2651 v -3.26679 h -3.2651 z m 13.062085,-16.32719 v -3.2651 h -3.266786 -3.2651 v 3.2651 h 3.2651 z m 6.5302,-6.5302 v -3.2651 h -3.2651 v 3.2651 z m 0,-3.2651 h 3.2651 v -3.26509 h -3.2651 z m -6.5302,-6.53188 h -3.266786 -3.2651 v 3.26679 h 3.2651 v 3.26509 3.2651 h 3.266786 v -3.2651 -3.26509 z m -3.266786,-16.3255 h -3.2651 v 3.2651 h 3.2651 z M 49.89323,17.238865 v -3.2651 h -3.265101 v 3.2651 z m -3.265101,0 H 43.36303 40.097931 v 3.26509 h -3.266786 v 3.26679 3.2651 h 3.266786 v -3.2651 h 3.265099 3.265099 v -3.26679 z m -6.530198,0 v -3.2651 h -3.266786 v 3.2651 z m 68.570459,-6.5302 v 3.2651 h 3.26511 v -3.2651 z m 6.5302,0 v 3.2651 h 3.2651 v -3.2651 z m 32.65268,0 v 3.2651 3.2651 3.26509 3.26679 3.2651 3.2651 3.2651 h 3.26679 3.26511 3.26509 3.2651 3.2651 3.2651 3.2651 v -3.2651 -3.2651 -3.2651 -3.26679 -3.26509 -3.2651 -3.2651 h -3.2651 -3.2651 -3.2651 -3.2651 -3.26509 -3.26511 z m -133.875822,3.2651 h 3.265099 3.265099 3.265101 3.2651 3.265098 v 3.2651 3.26509 3.26679 3.2651 3.2651 h -3.265098 -3.2651 -3.265101 -3.265099 -3.265099 v -3.2651 -3.2651 -3.26679 -3.26509 z m 137.142612,0 h 3.26511 3.26509 3.2651 3.2651 3.2651 v 3.2651 3.26509 3.26679 3.2651 3.2651 h -3.2651 -3.2651 -3.2651 -3.26509 -3.26511 v -3.2651 -3.2651 -3.26679 -3.26509 z m -133.877513,3.2651 v 3.26509 3.26679 3.2651 h 3.265099 3.265101 3.2651 v -3.2651 -3.26679 -3.26509 h -3.2651 -3.265101 z m 137.142623,0 v 3.26509 3.26679 3.2651 h 3.26509 3.2651 3.2651 v -3.2651 -3.26679 -3.26509 h -3.2651 -3.2651 z m -68.572158,9.79698 h 3.265099 3.265098 3.266787 v 3.2651 3.2651 3.2651 h -3.266787 -3.265098 -3.265099 v -3.2651 -3.2651 z m 3.265099,3.2651 v 3.2651 h 3.265098 v -3.2651 z m 42.449669,0 h 3.2651 v 3.2651 h -3.2651 z m -48.979867,9.7953 h 3.265099 3.265099 v 3.2651 h -3.265099 -3.265099 z m -52.244968,26.12248 h 3.2651 v 3.2651 h -3.2651 z m 47.589458,4.56102 c -4.108817,0 -7.416079,3.24782 -7.416079,7.28108 v 25.265285 c 0,4.03328 3.307262,7.28109 7.416079,7.28109 h 25.739447 c 4.10882,0 7.41608,-3.24781 7.41608,-7.28109 V 78.060825 c 0,-4.03326 -3.30726,-7.28108 -7.41608,-7.28108 z m 18.505606,2.33534 c 0,0 0.06592,2.20976 0.782948,2.8905 0.716977,0.68074 2.858423,0.65809 2.858433,0.65809 0,0 -2.290909,0.10871 -2.996799,0.80826 -0.702697,0.69643 -0.732077,2.74691 -0.732327,2.76563 2.5e-4,-0.0195 0.02731,-2.24718 -0.695204,-2.94956 -0.703708,-0.6843 -2.836994,-0.66012 -2.964745,-0.65808 0.128788,-0.003 2.294652,-0.0548 2.991742,-0.72389 0.718535,-0.68974 0.755952,-2.79095 0.755952,-2.79095 z m -10.078781,2.01137 c 0.114143,-0.004 0.231519,-8.8e-4 0.352664,0.0118 0.888705,0.0937 1.653492,0.69595 2.342099,1.30098 0.484456,0.42561 0.408426,0.94382 0.182236,1.35329 -0.787458,1.42558 -1.340628,2.74638 0.612524,3.13011 1.348616,0.26496 1.837122,1.0562 2.310036,1.87637 1.695602,2.94067 2.886573,5.54429 4.275846,8.27328 0.456111,1.0767 1.092047,2.03907 1.889873,2.823 0.620199,-0.004 1.361391,-2.2863 2.811194,-2.82807 0.29347,-0.14399 0.19501,-0.39371 0.0372,-0.65977 -0.55848,-0.20431 -1.366462,-0.28512 -1.395475,-1.60977 -0.0144,-0.65091 0.116151,-1.4996 1.284095,-1.59964 0.69889,-0.0601 1.36203,0.33591 1.95739,0.94325 0.37052,0.47958 0.29196,0.9377 0.12148,1.3921 -0.86791,1.66238 0.35816,1.52374 0.96181,2.28135 1.02509,1.28652 3.06657,6.49775 2.42648,6.50658 -0.28878,0.22524 -1.86808,-2.90296 -2.80108,-4.37203 0.86117,3.14613 1.14557,12.350225 0.47247,12.182935 -0.41469,0.24563 -1.32329,-4.09215 -1.87806,-6.715795 -0.87804,2.378835 -3.210021,6.348475 -3.558705,6.238275 -1.256615,-0.23344 2.114775,-4.77055 1.596265,-11.651425 -0.956178,0.79329 -1.970845,2.49317 -3.276909,0.2413 -0.488387,-0.85543 -0.997594,-1.69451 -1.327975,-2.67114 -1.310033,-1.65763 -2.573904,-3.38657 -3.978865,-4.89512 1.287292,6.0018 0.882171,18.785515 -0.01687,18.794145 -0.776011,0.0452 -1.102192,-7.202465 -2.731883,-10.652485 -1.793505,4.5772 -5.568257,11.579465 -6.385085,11.440495 -0.917148,-0.13624 5.861288,-16.362325 2.28304,-21.310035 -1.090284,-1.50757 -3.537024,-2.26111 -5.389524,-3.35622 -4.012553,-2.37208 -4.812281,-3.53888 -4.530642,-3.81519 0.24296,-0.32708 3.667872,1.99536 5.942987,2.6492 2.583059,0.7423 4.621493,0.4521 4.86137,-0.65302 0.0095,-0.81367 -0.643702,-0.6115 -0.960125,-1.09343 -1.086471,-1.6546 -0.201717,-3.49966 1.510214,-3.55533 z m 16.207382,1.40054 c 0,0 0.0862,2.85997 1.01412,3.74094 0.92786,0.88101 3.70044,0.85382 3.70044,0.85382 0,0 -2.9675,0.13909 -3.88099,1.04449 -0.91347,0.90543 -0.94661,3.57896 -0.94663,3.57896 0,0 0.0397,-2.90367 -0.89937,-3.81688 -0.91115,-0.88618 -3.674259,-0.85476 -3.83713,-0.85213 0.164184,-0.003 2.96999,-0.0701 3.87256,-0.9365 0.92981,-0.89259 0.977,-3.6127 0.977,-3.6127 z m -75.488763,9.28402 h 3.265098 3.2651 3.2651 v 3.2651 3.26509 3.2651 h -3.2651 -3.2651 -3.265098 v -3.2651 -3.26509 z m 117.550333,0 h 3.26509 3.26679 3.26511 v 3.2651 3.26509 3.2651 h -3.26511 -3.26679 -3.26509 v -3.2651 -3.26509 z m -114.285235,3.2651 v 3.26509 h 3.2651 v -3.26509 z m 117.550325,0 v 3.26509 h 3.26679 v -3.26509 z m 0,9.7953 h 3.26679 v 3.265095 h 3.26511 3.26509 v 3.26678 3.2651 h -3.26509 v 3.26511 h -3.26511 v 3.26509 h -3.26679 -3.26509 -3.26511 v -3.26509 -3.26511 h 3.26511 v -3.2651 h -3.26511 v -3.26678 h 3.26511 3.26509 z m -3.26509,9.796975 v 3.26511 h 3.26509 3.26679 v -3.26511 h 3.26511 v -3.2651 h -3.26511 -3.26679 v 3.2651 z m -32.52276,-6.53188 v 1.83588 c 0,0.48848 -0.0449,0.96714 -0.12992,1.4309 h 3.26509 3.2651 v -3.26678 h -3.2651 z m -101.354759,6.53188 v 3.26511 h 3.266787 v -3.26511 z m 3.266787,3.26511 v 3.26509 h -3.266787 v 3.2651 h 3.266787 v 3.26511 h -3.266787 v 3.26509 3.2651 h 3.266787 3.265099 v -3.2651 h 3.265099 v -3.26509 -3.26511 h -3.265099 v -3.2651 -3.26509 z m 91.427842,-0.1215 c -0.37841,0.0667 -0.76588,0.10784 -1.16091,0.1215 h 1.16091 z m -68.572145,32.77418 v 3.26509 h 3.266786 v -3.26509 z m 48.979867,0 h 3.265099 3.265098 3.266787 v 3.26509 3.2651 3.26511 h -3.266787 -3.265098 -3.265099 v -3.26511 -3.2651 z m 58.775168,0 h 3.26509 3.26679 3.26511 v 3.26509 3.2651 3.26511 h -3.26511 -3.26679 -3.26509 v -3.26511 -3.2651 z m -133.877519,3.26509 v 3.2651 3.26511 3.26509 3.26679 3.2651 3.2651 3.2651 h 3.266787 3.265099 3.265099 3.265101 3.2651 3.265098 3.2651 v -3.2651 -3.2651 -3.2651 -3.26679 -3.26509 -3.26511 -3.2651 h -3.2651 -3.265098 -3.2651 -3.265101 -3.265099 -3.265099 z m 65.307052,0 h 3.2651 v 3.2651 h -3.2651 z m 13.060398,0 v 3.2651 h 3.265098 v -3.2651 z m 58.775159,0 v 3.2651 h 3.26679 v -3.2651 z m -133.875822,3.2651 h 3.265099 3.265099 3.265101 3.2651 3.265098 v 3.26511 3.26509 3.26679 3.2651 3.2651 h -3.265098 -3.2651 -3.265101 -3.265099 -3.265099 v -3.2651 -3.2651 -3.26679 -3.26509 z m 84.897649,0 h 3.265093 v 3.26511 h -3.265093 z m -81.63255,3.26511 v 3.26509 3.26679 3.2651 h 3.265099 3.265101 3.2651 v -3.2651 -3.26679 -3.26509 h -3.2651 -3.265101 z m 143.672813,3.26509 v 3.26679 3.2651 h -3.2651 v 3.2651 h -3.26509 v 3.2651 h 3.26509 3.2651 v -3.2651 h 3.2651 3.2651 v 3.2651 h 3.2651 v -3.2651 -3.2651 -3.2651 h -3.2651 v 3.2651 h -3.2651 v -3.2651 -3.26679 z m -3.2651,6.53189 v -3.2651 h -3.26509 v 3.2651 z m -16.32719,0 v 3.2651 3.2651 h 3.26511 v -3.2651 -3.2651 z m 6.5302,0 v 3.2651 h 3.26679 v -3.2651 z m -45.71308,3.2651 v 3.2651 h 3.2651 3.2651 v -3.2651 h -3.2651 z"
     style="stroke-width:0.863944;fill:#333333" /><path
     d=""
     id="path775" /><path
     d=""
     id="path774" /><path
     d=""
     id="path773" /><path
     d=""
     id="path754" /><path
     d=""
     id="path753" /><path
     d=""
     id="path752" /><path
     d=""
     id="path751" /><path
     d=""
     id="path750" /><path
     d=""
     id="path735" /><path
     d=""
     id="path734" /><path
     d=""
     id="path733" /><path
     d=""
     id="path732" /><path
     d=""
     id="path731" /><path
     d=""
     id="path730" /><path
     d=""
     id="path729" /><path
     d=""
     id="path714" /><path
     d=""
     id="path713" /><path
     d=""
     id="path712" /><path
     d=""
     id="path711" /><path
     d=""
     id="path710" /><path
     d=""
     id="path709" /><path
     d=""
     id="path708" /><path
     d=""
     id="path707" /><path
     d=""
     id="path706" /><path
     d=""
     id="path682" /><path
     d=""
     id="path681" /><path
     d=""
     id="path680" /><path
     d=""
     id="path679" /><path
     d=""
     id="path678" /><path
     d=""
     id="path677" /><path
     d=""
     id="path676" /><path
     d=""
     id="path675" /><path
     d=""
     id="path674" /><path
     d=""
     id="path673" /><path
     d=""
     id="path649" /><path
     d=""
     id="path648" /><path
     d=""
     id="path647" /><path
     d=""
     id="path646" /><path
     d=""
     id="path645" /><path
     d=""
     id="path644" /><path
     d=""
     id="path643" /><path
     d=""
     id="path642" /><path
     d=""
     id="path623" /><path
     d=""
     id="path622" /><path
     d=""
     id="path621" /><path
     d=""
     id="path620" /><path
     d=""
     id="path619" /><path
     d=""
     id="path618" /><path
     d=""
     id="path617" /><path
     d=""
     id="path616" /><path
     d=""
     id="path615" /><path
     d=""
     id="path592" /><path
     d=""
     id="path591" /><path
     d=""
     id="path590" /><path
     d=""
     id="path589" /><path
     d=""
     id="path588" /><path
     d=""
     id="path587" /><path
     d=""
     id="path586" /><path
     d=""
     id="path568" /><path
     d=""
     id="path567" /><path
     d=""
     id="path566" /><path
     d=""
     id="path565" /><path
     d=""
     id="path564" /><path
     d=""
     id="path563" /><path
     d=""
     id="path562" /><path
     d=""
     id="path561" /><path
     d=""
     id="path560" /><path
     d=""
     id="path533" /><path
     d=""
     id="path532" /><path
     d=""
     id="path531" /><path
     d=""
     id="path530" /><path
     d=""
     id="path529" /><path
     d=""
     id="path528" /><path
     d=""
     id="path527" /><path
     d=""
     id="path526" /><path
     d=""
     id="path511" /><path
     d=""
     id="path510" /><path
     d=""
     id="path509" /><path
     d=""
     id="path508" /><path
     d=""
     id="path507" /><path
     d=""
     id="path506" /><path
     d=""
     id="path505" /><path
     d=""
     id="path486" /><path
     d=""
     id="path485" /><path
     d=""
     id="path484" /><path
     d=""
     id="path483" /><path
     d=""
     id="path482" /><path
     d=""
     id="path481" /><path
     d=""
     id="path459" /><path
     d=""
     id="path458" /><path
     d=""
     id="path457" /><path
     d=""
     id="path456" /></svg>
